STARTFONT 2.1
COMMENT 
COMMENT Converted from TrueType font "LiberationSans-Bold.ttf" by "ttf2bdf 2.9".
COMMENT 
FONT -FreeType-Liberation Sans-Bold-R-Normal--17-120-100-100-P-89-ISO10646-1
SIZE 12 100 100
FONTBOUNDINGBOX 20 24 -2 -6
STARTPROPERTIES 20
FOUNDRY "FreeType"
FAMILY_NAME "Liberation Sans"
WEIGHT_NAME "Bold"
SLANT "R"
SETWIDTH_NAME "Normal"
ADD_STYLE_NAME ""
PIXEL_SIZE 17
POINT_SIZE 120
RESOLUTION_X 100
RESOLUTION_Y 100
SPACING "P"
AVERAGE_WIDTH 89
CHARSET_REGISTRY "ISO10646"
CHARSET_ENCODING "1"
FONT_ASCENT 15
FONT_DESCENT 3
COPYRIGHT "Digitized data © 2007 Ascender Corporation. All rights reserved."
_TTF_FONTFILE "LiberationSans-Bold.ttf"
_TTF_PSNAME "LiberationSans-Bold"
_GBDFED_INFO "Edited with gbdfed 1.3."
ENDPROPERTIES
CHARS 656
STARTCHAR 0020
ENCODING 32
SWIDTH 240 0
DWIDTH 4 0
BBX 0 0 0 0
BITMAP
ENDCHAR
STARTCHAR 0021
ENCODING 33
SWIDTH 240 0
DWIDTH 4 0
BBX 2 12 1 0
BITMAP
C0
C0
C0
C0
C0
C0
C0
C0
C0
00
C0
C0
ENDCHAR
STARTCHAR 0022
ENCODING 34
SWIDTH 480 0
DWIDTH 8 0
BBX 6 4 1 8
BITMAP
CC
CC
CC
CC
ENDCHAR
STARTCHAR 0023
ENCODING 35
SWIDTH 660 0
DWIDTH 11 0
BBX 9 12 1 0
BITMAP
1B00
1B00
1B00
7F80
7F80
3600
3600
FF00
FF00
6600
CC00
CC00
ENDCHAR
STARTCHAR 0024
ENCODING 36
SWIDTH 540 0
DWIDTH 9 0
BBX 7 14 1 -1
BITMAP
10
7C
FE
D6
D0
F0
7C
3E
16
16
D6
FE
7C
10
ENDCHAR
STARTCHAR 0025
ENCODING 37
SWIDTH 960 0
DWIDTH 16 0
BBX 14 12 1 0
BITMAP
7830
CC60
CC40
CCC0
CD80
CF78
7ACC
06CC
0CCC
08CC
18CC
3078
ENDCHAR
STARTCHAR 0026
ENCODING 38
SWIDTH 720 0
DWIDTH 12 0
BBX 10 12 1 0
BITMAP
3E00
7F00
6300
6700
3C00
7180
D980
DD80
CF00
C700
7FC0
3CC0
ENDCHAR
STARTCHAR 0027
ENCODING 39
SWIDTH 240 0
DWIDTH 4 0
BBX 2 4 1 8
BITMAP
C0
C0
C0
C0
ENDCHAR
STARTCHAR 0028
ENCODING 40
SWIDTH 420 0
DWIDTH 7 0
BBX 5 16 2 -4
BITMAP
18
30
60
60
C0
C0
C0
C0
C0
C0
C0
C0
60
60
30
18
ENDCHAR
STARTCHAR 0029
ENCODING 41
SWIDTH 420 0
DWIDTH 7 0
BBX 5 16 0 -4
BITMAP
C0
60
30
30
18
18
18
18
18
18
18
18
30
30
60
C0
ENDCHAR
STARTCHAR 002A
ENCODING 42
SWIDTH 540 0
DWIDTH 9 0
BBX 7 6 1 6
BITMAP
10
10
FE
38
6C
6C
ENDCHAR
STARTCHAR 002B
ENCODING 43
SWIDTH 600 0
DWIDTH 10 0
BBX 8 8 1 2
BITMAP
18
18
18
FF
FF
18
18
18
ENDCHAR
STARTCHAR 002C
ENCODING 44
SWIDTH 240 0
DWIDTH 4 0
BBX 2 5 1 -3
BITMAP
C0
C0
40
40
C0
ENDCHAR
STARTCHAR 002D
ENCODING 45
SWIDTH 360 0
DWIDTH 6 0
BBX 4 2 1 3
BITMAP
F0
F0
ENDCHAR
STARTCHAR 002E
ENCODING 46
SWIDTH 240 0
DWIDTH 4 0
BBX 2 2 1 0
BITMAP
C0
C0
ENDCHAR
STARTCHAR 002F
ENCODING 47
SWIDTH 420 0
DWIDTH 7 0
BBX 5 12 1 0
BITMAP
18
18
18
30
30
30
60
60
60
C0
C0
C0
ENDCHAR
STARTCHAR 0030
ENCODING 48
SWIDTH 540 0
DWIDTH 9 0
BBX 7 12 1 0
BITMAP
38
7C
EE
C6
C6
C6
C6
C6
C6
EE
7C
38
ENDCHAR
STARTCHAR 0031
ENCODING 49
SWIDTH 540 0
DWIDTH 9 0
BBX 8 12 1 0
BITMAP
38
78
D8
98
18
18
18
18
18
18
FF
FF
ENDCHAR
STARTCHAR 0032
ENCODING 50
SWIDTH 540 0
DWIDTH 9 0
BBX 7 12 1 0
BITMAP
7C
FE
C6
06
06
0C
1C
38
70
E0
FE
FE
ENDCHAR
STARTCHAR 0033
ENCODING 51
SWIDTH 540 0
DWIDTH 9 0
BBX 7 12 1 0
BITMAP
7C
FE
C6
06
06
3C
3C
06
06
C6
FE
7C
ENDCHAR
STARTCHAR 0034
ENCODING 52
SWIDTH 600 0
DWIDTH 10 0
BBX 8 12 1 0
BITMAP
0E
0E
1E
16
36
66
66
C6
FF
FF
06
06
ENDCHAR
STARTCHAR 0035
ENCODING 53
SWIDTH 540 0
DWIDTH 9 0
BBX 7 12 1 0
BITMAP
FC
FC
C0
C0
F8
FC
E6
06
06
C6
FC
78
ENDCHAR
STARTCHAR 0036
ENCODING 54
SWIDTH 540 0
DWIDTH 9 0
BBX 7 12 1 0
BITMAP
3C
7E
66
C0
FC
FC
C6
C6
C6
E6
7C
38
ENDCHAR
STARTCHAR 0037
ENCODING 55
SWIDTH 540 0
DWIDTH 9 0
BBX 7 12 1 0
BITMAP
FE
FE
06
0C
0C
18
18
18
30
30
30
30
ENDCHAR
STARTCHAR 0038
ENCODING 56
SWIDTH 540 0
DWIDTH 9 0
BBX 7 12 1 0
BITMAP
7C
FE
C6
C6
C6
7C
7C
C6
C6
C6
FE
7C
ENDCHAR
STARTCHAR 0039
ENCODING 57
SWIDTH 540 0
DWIDTH 9 0
BBX 7 12 1 0
BITMAP
38
7C
CE
C6
C6
C6
7E
7E
06
CC
FC
78
ENDCHAR
STARTCHAR 003A
ENCODING 58
SWIDTH 240 0
DWIDTH 4 0
BBX 2 9 1 0
BITMAP
C0
C0
00
00
00
00
00
C0
C0
ENDCHAR
STARTCHAR 003B
ENCODING 59
SWIDTH 360 0
DWIDTH 6 0
BBX 2 12 1 -3
BITMAP
C0
C0
00
00
00
00
00
C0
C0
40
40
C0
ENDCHAR
STARTCHAR 003C
ENCODING 60
SWIDTH 600 0
DWIDTH 10 0
BBX 8 9 1 1
BITMAP
01
0F
7E
F0
C0
F0
7E
0F
01
ENDCHAR
STARTCHAR 003D
ENCODING 61
SWIDTH 600 0
DWIDTH 10 0
BBX 8 6 1 3
BITMAP
FF
FF
00
00
FF
FF
ENDCHAR
STARTCHAR 003E
ENCODING 62
SWIDTH 600 0
DWIDTH 10 0
BBX 8 9 1 1
BITMAP
80
F0
7E
0F
03
0F
7E
F0
80
ENDCHAR
STARTCHAR 003F
ENCODING 63
SWIDTH 600 0
DWIDTH 10 0
BBX 8 12 1 0
BITMAP
3C
7E
E3
C3
03
07
0E
1C
18
00
18
18
ENDCHAR
STARTCHAR 0040
ENCODING 64
SWIDTH 1020 0
DWIDTH 17 0
BBX 15 15 1 -3
BITMAP
07E0
1818
300C
63A4
4462
C462
8862
8842
8842
88C4
88CC
4778
4000
3030
0FC0
ENDCHAR
STARTCHAR 0041
ENCODING 65
SWIDTH 780 0
DWIDTH 13 0
BBX 11 12 1 0
BITMAP
0E00
0E00
1B00
1B00
1B00
3180
3180
3F80
7FC0
60C0
60C0
C060
ENDCHAR
STARTCHAR 0042
ENCODING 66
SWIDTH 720 0
DWIDTH 12 0
BBX 10 12 1 0
BITMAP
FF00
FF80
C180
C180
C180
FF00
FF80
C0C0
C0C0
C0C0
FF80
FF00
ENDCHAR
STARTCHAR 0043
ENCODING 67
SWIDTH 720 0
DWIDTH 12 0
BBX 10 12 1 0
BITMAP
1F00
7F80
61C0
C0C0
C000
C000
C000
C000
E080
61C0
7F80
1F00
ENDCHAR
STARTCHAR 0044
ENCODING 68
SWIDTH 720 0
DWIDTH 12 0
BBX 10 12 1 0
BITMAP
FE00
FF00
C380
C1C0
C0C0
C0C0
C0C0
C0C0
C1C0
C380
FF00
FE00
ENDCHAR
STARTCHAR 0045
ENCODING 69
SWIDTH 660 0
DWIDTH 11 0
BBX 9 12 1 0
BITMAP
FF80
FF80
C000
C000
C000
FF00
FF00
C000
C000
C000
FF80
FF80
ENDCHAR
STARTCHAR 0046
ENCODING 70
SWIDTH 600 0
DWIDTH 10 0
BBX 8 12 1 0
BITMAP
FF
FF
C0
C0
C0
FF
FF
C0
C0
C0
C0
C0
ENDCHAR
STARTCHAR 0047
ENCODING 71
SWIDTH 780 0
DWIDTH 13 0
BBX 11 12 1 0
BITMAP
1F80
3FC0
70E0
E040
C000
C000
C3E0
C3E0
E060
7060
3FE0
1F80
ENDCHAR
STARTCHAR 0048
ENCODING 72
SWIDTH 720 0
DWIDTH 12 0
BBX 10 12 1 0
BITMAP
C0C0
C0C0
C0C0
C0C0
C0C0
FFC0
FFC0
C0C0
C0C0
C0C0
C0C0
C0C0
ENDCHAR
STARTCHAR 0049
ENCODING 73
SWIDTH 240 0
DWIDTH 4 0
BBX 2 12 1 0
BITMAP
C0
C0
C0
C0
C0
C0
C0
C0
C0
C0
C0
C0
ENDCHAR
STARTCHAR 004A
ENCODING 74
SWIDTH 600 0
DWIDTH 10 0
BBX 8 12 1 0
BITMAP
0F
0F
03
03
03
03
03
03
C3
E3
7E
3C
ENDCHAR
STARTCHAR 004B
ENCODING 75
SWIDTH 780 0
DWIDTH 13 0
BBX 11 12 1 0
BITMAP
C0E0
C1C0
C700
CE00
DC00
FC00
FE00
C600
C300
C180
C0C0
C0E0
ENDCHAR
STARTCHAR 004C
ENCODING 76
SWIDTH 600 0
DWIDTH 10 0
BBX 8 12 1 0
BITMAP
C0
C0
C0
C0
C0
C0
C0
C0
C0
C0
FF
FF
ENDCHAR
STARTCHAR 004D
ENCODING 77
SWIDTH 780 0
DWIDTH 13 0
BBX 11 12 1 0
BITMAP
E0E0
F0E0
F1E0
F1E0
D160
DB60
DB60
DB60
CA60
CE60
CE60
CE60
ENDCHAR
STARTCHAR 004E
ENCODING 78
SWIDTH 720 0
DWIDTH 12 0
BBX 10 12 1 0
BITMAP
E0C0
E0C0
F0C0
F8C0
D8C0
DCC0
CEC0
C6C0
C7C0
C3C0
C1C0
C1C0
ENDCHAR
STARTCHAR 004F
ENCODING 79
SWIDTH 780 0
DWIDTH 13 0
BBX 11 12 1 0
BITMAP
1F00
3F80
71C0
E0E0
C060
C060
C060
C060
E0E0
71C0
3F80
1F00
ENDCHAR
STARTCHAR 0050
ENCODING 80
SWIDTH 660 0
DWIDTH 11 0
BBX 9 12 1 0
BITMAP
FE00
FF00
C180
C180
C180
FF00
FE00
C000
C000
C000
C000
C000
ENDCHAR
STARTCHAR 0051
ENCODING 81
SWIDTH 780 0
DWIDTH 13 0
BBX 11 15 1 -3
BITMAP
1F00
3F80
71C0
E0E0
C060
C060
C060
C060
E0E0
71C0
3FC0
1F00
0600
03C0
01C0
ENDCHAR
STARTCHAR 0052
ENCODING 82
SWIDTH 780 0
DWIDTH 13 0
BBX 11 12 1 0
BITMAP
FF00
FF80
C0C0
C0C0
C0C0
FF80
FE00
C700
C380
C180
C1C0
C0E0
ENDCHAR
STARTCHAR 0053
ENCODING 83
SWIDTH 720 0
DWIDTH 12 0
BBX 10 12 0 0
BITMAP
1F00
3FC0
60C0
6000
7000
3F00
0F80
01C0
C0C0
E0C0
7F80
3F00
ENDCHAR
STARTCHAR 0054
ENCODING 84
SWIDTH 600 0
DWIDTH 10 0
BBX 8 12 1 0
BITMAP
FF
FF
18
18
18
18
18
18
18
18
18
18
ENDCHAR
STARTCHAR 0055
ENCODING 85
SWIDTH 720 0
DWIDTH 12 0
BBX 10 12 1 0
BITMAP
C0C0
C0C0
C0C0
C0C0
C0C0
C0C0
C0C0
C0C0
C0C0
E1C0
7F80
3F00
ENDCHAR
STARTCHAR 0056
ENCODING 86
SWIDTH 780 0
DWIDTH 13 0
BBX 11 12 1 0
BITMAP
C060
E0E0
60C0
60C0
71C0
3180
3180
1B00
1B00
1B00
0E00
0E00
ENDCHAR
STARTCHAR 0057
ENCODING 87
SWIDTH 1140 0
DWIDTH 19 0
BBX 17 12 1 0
BITMAP
C1C180
E1C380
E16380
636300
636300
736700
323600
363600
363600
3E3E00
1C1C00
1C1C00
ENDCHAR
STARTCHAR 0058
ENCODING 88
SWIDTH 780 0
DWIDTH 13 0
BBX 11 12 1 0
BITMAP
E0E0
60C0
3180
3B80
1F00
0E00
1F00
1B00
3B80
71C0
60C0
E0E0
ENDCHAR
STARTCHAR 0059
ENCODING 89
SWIDTH 600 0
DWIDTH 10 0
BBX 8 12 1 0
BITMAP
C3
E7
66
6E
3C
3C
18
18
18
18
18
18
ENDCHAR
STARTCHAR 005A
ENCODING 90
SWIDTH 540 0
DWIDTH 9 0
BBX 7 12 1 0
BITMAP
FE
FE
0E
1C
1C
38
38
70
70
E0
FE
FE
ENDCHAR
STARTCHAR 005B
ENCODING 91
SWIDTH 420 0
DWIDTH 7 0
BBX 5 16 1 -4
BITMAP
F8
C0
C0
C0
C0
C0
C0
C0
C0
C0
C0
C0
C0
C0
C0
F8
ENDCHAR
STARTCHAR 005C
ENCODING 92
SWIDTH 420 0
DWIDTH 7 0
BBX 5 12 1 0
BITMAP
C0
C0
C0
60
60
60
30
30
30
18
18
18
ENDCHAR
STARTCHAR 005D
ENCODING 93
SWIDTH 360 0
DWIDTH 6 0
BBX 4 16 1 -4
BITMAP
F0
30
30
30
30
30
30
30
30
30
30
30
30
30
30
F0
ENDCHAR
STARTCHAR 005E
ENCODING 94
SWIDTH 600 0
DWIDTH 10 0
BBX 8 7 1 5
BITMAP
3C
3C
24
66
66
C3
C3
ENDCHAR
STARTCHAR 005F
ENCODING 95
SWIDTH 600 0
DWIDTH 10 0
BBX 10 1 0 -2
BITMAP
FFC0
ENDCHAR
STARTCHAR 0060
ENCODING 96
SWIDTH 360 0
DWIDTH 6 0
BBX 4 3 1 10
BITMAP
C0
60
30
ENDCHAR
STARTCHAR 0061
ENCODING 97
SWIDTH 600 0
DWIDTH 10 0
BBX 8 9 1 0
BITMAP
7C
FE
06
7E
FE
C6
CE
FF
73
ENDCHAR
STARTCHAR 0062
ENCODING 98
SWIDTH 600 0
DWIDTH 10 0
BBX 8 12 1 0
BITMAP
C0
C0
C0
DE
FE
E7
C3
C3
C3
E7
FE
DC
ENDCHAR
STARTCHAR 0063
ENCODING 99
SWIDTH 540 0
DWIDTH 9 0
BBX 7 9 1 0
BITMAP
3C
7E
C6
C0
C0
C0
C6
7E
3C
ENDCHAR
STARTCHAR 0064
ENCODING 100
SWIDTH 600 0
DWIDTH 10 0
BBX 8 12 1 0
BITMAP
03
03
03
3B
7F
E7
C3
C3
C3
E7
7F
7B
ENDCHAR
STARTCHAR 0065
ENCODING 101
SWIDTH 540 0
DWIDTH 9 0
BBX 7 9 1 0
BITMAP
38
7C
C6
FE
FE
C0
C6
7C
38
ENDCHAR
STARTCHAR 0066
ENCODING 102
SWIDTH 420 0
DWIDTH 7 0
BBX 5 12 1 0
BITMAP
38
78
60
F8
F8
60
60
60
60
60
60
60
ENDCHAR
STARTCHAR 0067
ENCODING 103
SWIDTH 600 0
DWIDTH 10 0
BBX 8 13 1 -4
BITMAP
3B
7F
E7
C3
C3
C3
E7
7F
3B
03
C7
FE
3C
ENDCHAR
STARTCHAR 0068
ENCODING 104
SWIDTH 600 0
DWIDTH 10 0
BBX 8 12 1 0
BITMAP
C0
C0
C0
DE
FF
E7
C3
C3
C3
C3
C3
C3
ENDCHAR
STARTCHAR 0069
ENCODING 105
SWIDTH 240 0
DWIDTH 4 0
BBX 2 12 1 0
BITMAP
C0
C0
00
C0
C0
C0
C0
C0
C0
C0
C0
C0
ENDCHAR
STARTCHAR 006A
ENCODING 106
SWIDTH 300 0
DWIDTH 5 0
BBX 3 16 1 -4
BITMAP
60
60
00
60
60
60
60
60
60
60
60
60
60
60
E0
C0
ENDCHAR
STARTCHAR 006B
ENCODING 107
SWIDTH 600 0
DWIDTH 10 0
BBX 8 12 1 0
BITMAP
C0
C0
C0
C7
CE
DC
F8
F8
CC
CE
C6
C7
ENDCHAR
STARTCHAR 006C
ENCODING 108
SWIDTH 240 0
DWIDTH 4 0
BBX 2 12 1 0
BITMAP
C0
C0
C0
C0
C0
C0
C0
C0
C0
C0
C0
C0
ENDCHAR
STARTCHAR 006D
ENCODING 109
SWIDTH 840 0
DWIDTH 14 0
BBX 12 9 1 0
BITMAP
DCE0
FFF0
E730
C630
C630
C630
C630
C630
C630
ENDCHAR
STARTCHAR 006E
ENCODING 110
SWIDTH 600 0
DWIDTH 10 0
BBX 8 9 1 0
BITMAP
DE
FF
E7
C3
C3
C3
C3
C3
C3
ENDCHAR
STARTCHAR 006F
ENCODING 111
SWIDTH 600 0
DWIDTH 10 0
BBX 8 9 1 0
BITMAP
3C
7E
E7
C3
C3
C3
E7
7E
3C
ENDCHAR
STARTCHAR 0070
ENCODING 112
SWIDTH 600 0
DWIDTH 10 0
BBX 8 13 1 -4
BITMAP
DC
FE
E7
C3
C3
C3
E7
FE
DC
C0
C0
C0
C0
ENDCHAR
STARTCHAR 0071
ENCODING 113
SWIDTH 600 0
DWIDTH 10 0
BBX 8 13 1 -4
BITMAP
3B
7F
E7
C3
C3
C3
E7
7F
7B
03
03
03
03
ENDCHAR
STARTCHAR 0072
ENCODING 114
SWIDTH 480 0
DWIDTH 8 0
BBX 6 9 1 0
BITMAP
DC
FC
E0
C0
C0
C0
C0
C0
C0
ENDCHAR
STARTCHAR 0073
ENCODING 115
SWIDTH 540 0
DWIDTH 9 0
BBX 7 9 1 0
BITMAP
7C
FE
C6
F0
7C
0E
C6
FE
7C
ENDCHAR
STARTCHAR 0074
ENCODING 116
SWIDTH 420 0
DWIDTH 7 0
BBX 5 11 1 0
BITMAP
20
60
F8
F8
60
60
60
60
60
78
38
ENDCHAR
STARTCHAR 0075
ENCODING 117
SWIDTH 600 0
DWIDTH 10 0
BBX 8 9 1 0
BITMAP
C3
C3
C3
C3
C3
C3
E7
FF
7B
ENDCHAR
STARTCHAR 0076
ENCODING 118
SWIDTH 660 0
DWIDTH 11 0
BBX 9 9 1 0
BITMAP
C180
E380
6300
6300
7700
3600
3600
1C00
1C00
ENDCHAR
STARTCHAR 0077
ENCODING 119
SWIDTH 900 0
DWIDTH 15 0
BBX 13 9 1 0
BITMAP
C718
C718
E518
6DB0
6DB0
6DB0
68B0
38E0
38E0
ENDCHAR
STARTCHAR 0078
ENCODING 120
SWIDTH 660 0
DWIDTH 11 0
BBX 9 9 1 0
BITMAP
E380
6300
3600
1C00
1C00
3E00
3600
6300
E380
ENDCHAR
STARTCHAR 0079
ENCODING 121
SWIDTH 660 0
DWIDTH 11 0
BBX 9 13 1 -4
BITMAP
C180
E380
6300
6300
3700
3600
3600
1C00
1C00
1C00
1800
7800
7000
ENDCHAR
STARTCHAR 007A
ENCODING 122
SWIDTH 540 0
DWIDTH 9 0
BBX 7 9 1 0
BITMAP
FE
FE
04
08
10
20
40
FE
FE
ENDCHAR
STARTCHAR 007B
ENCODING 123
SWIDTH 480 0
DWIDTH 8 0
BBX 6 16 2 -4
BITMAP
1C
30
30
30
30
30
30
C0
70
30
30
30
30
30
30
1C
ENDCHAR
STARTCHAR 007C
ENCODING 124
SWIDTH 240 0
DWIDTH 4 0
BBX 2 16 1 -4
BITMAP
C0
C0
C0
C0
C0
C0
C0
C0
C0
C0
C0
C0
C0
C0
C0
C0
ENDCHAR
STARTCHAR 007D
ENCODING 125
SWIDTH 480 0
DWIDTH 8 0
BBX 6 16 2 -4
BITMAP
E0
30
30
30
30
30
30
0C
38
30
30
30
30
30
30
E0
ENDCHAR
STARTCHAR 007E
ENCODING 126
SWIDTH 600 0
DWIDTH 10 0
BBX 8 4 1 4
BITMAP
70
F9
9F
06
ENDCHAR
STARTCHAR 00A0
ENCODING 160
SWIDTH 240 0
DWIDTH 4 0
BBX 0 0 0 0
BITMAP
ENDCHAR
STARTCHAR 00A1
ENCODING 161
SWIDTH 240 0
DWIDTH 4 0
BBX 2 12 1 -3
BITMAP
C0
C0
00
C0
C0
C0
C0
C0
C0
C0
C0
C0
ENDCHAR
STARTCHAR 00A2
ENCODING 162
SWIDTH 540 0
DWIDTH 9 0
BBX 7 12 1 0
BITMAP
10
10
3C
7E
C6
C0
C0
C6
7E
3C
10
10
ENDCHAR
STARTCHAR 00A3
ENCODING 163
SWIDTH 540 0
DWIDTH 9 0
BBX 7 12 1 0
BITMAP
38
7C
6C
60
60
F8
F8
60
60
46
FE
FC
ENDCHAR
STARTCHAR 00A4
ENCODING 164
SWIDTH 540 0
DWIDTH 9 0
BBX 9 9 0 1
BITMAP
4100
FF80
7F00
6300
6300
6300
7F00
FF80
4100
ENDCHAR
STARTCHAR 00A5
ENCODING 165
SWIDTH 600 0
DWIDTH 10 0
BBX 8 12 1 0
BITMAP
C3
E7
66
66
3C
3C
FF
18
18
FF
18
18
ENDCHAR
STARTCHAR 00A6
ENCODING 166
SWIDTH 240 0
DWIDTH 4 0
BBX 2 16 1 -4
BITMAP
C0
C0
C0
C0
C0
C0
C0
00
00
C0
C0
C0
C0
C0
C0
C0
ENDCHAR
STARTCHAR 00A7
ENCODING 167
SWIDTH 540 0
DWIDTH 9 0
BBX 7 14 1 -2
BITMAP
7C
C6
C0
F0
7C
FE
C6
C6
FC
7C
0E
C6
C6
7C
ENDCHAR
STARTCHAR 00A8
ENCODING 168
SWIDTH 420 0
DWIDTH 7 0
BBX 5 2 1 10
BITMAP
D8
D8
ENDCHAR
STARTCHAR 00A9
ENCODING 169
SWIDTH 840 0
DWIDTH 14 0
BBX 12 12 1 0
BITMAP
0F00
30C0
4020
4F20
9890
9810
9810
9990
4F20
4020
30C0
0F00
ENDCHAR
STARTCHAR 00AA
ENCODING 170
SWIDTH 480 0
DWIDTH 8 0
BBX 6 6 1 6
BITMAP
F0
18
78
D8
D8
EC
ENDCHAR
STARTCHAR 00AB
ENCODING 171
SWIDTH 540 0
DWIDTH 9 0
BBX 8 7 1 1
BITMAP
33
66
EE
CC
EE
66
33
ENDCHAR
STARTCHAR 00AC
ENCODING 172
SWIDTH 600 0
DWIDTH 10 0
BBX 8 5 1 2
BITMAP
FF
FF
03
03
03
ENDCHAR
STARTCHAR 00AD
ENCODING 173
SWIDTH 360 0
DWIDTH 6 0
BBX 4 2 1 3
BITMAP
F0
F0
ENDCHAR
STARTCHAR 00AE
ENCODING 174
SWIDTH 840 0
DWIDTH 14 0
BBX 12 12 1 0
BITMAP
0F00
30C0
4020
5F20
9990
9990
9F10
9B10
59A0
4020
30C0
0F00
ENDCHAR
STARTCHAR 00AF
ENCODING 175
SWIDTH 600 0
DWIDTH 10 0
BBX 10 1 0 12
BITMAP
FFC0
ENDCHAR
STARTCHAR 00B0
ENCODING 176
SWIDTH 420 0
DWIDTH 7 0
BBX 5 5 1 7
BITMAP
70
88
88
88
70
ENDCHAR
STARTCHAR 00B1
ENCODING 177
SWIDTH 600 0
DWIDTH 10 0
BBX 8 11 1 0
BITMAP
18
18
18
FF
FF
18
18
18
00
FF
FF
ENDCHAR
STARTCHAR 00B2
ENCODING 178
SWIDTH 360 0
DWIDTH 6 0
BBX 5 6 0 6
BITMAP
70
D8
18
70
C0
F8
ENDCHAR
STARTCHAR 00B3
ENCODING 179
SWIDTH 360 0
DWIDTH 6 0
BBX 5 6 0 6
BITMAP
F8
18
30
18
D8
70
ENDCHAR
STARTCHAR 00B4
ENCODING 180
SWIDTH 360 0
DWIDTH 6 0
BBX 4 3 1 10
BITMAP
30
60
C0
ENDCHAR
STARTCHAR 00B5
ENCODING 181
SWIDTH 600 0
DWIDTH 10 0
BBX 8 13 1 -4
BITMAP
C3
C3
C3
C3
C3
C3
E7
FF
FB
C0
C0
C0
C0
ENDCHAR
STARTCHAR 00B6
ENCODING 182
SWIDTH 540 0
DWIDTH 9 0
BBX 7 14 1 -2
BITMAP
7E
F4
F4
F4
F4
74
14
14
14
14
14
14
14
14
ENDCHAR
STARTCHAR 00B7
ENCODING 183
SWIDTH 300 0
DWIDTH 5 0
BBX 2 2 1 4
BITMAP
C0
C0
ENDCHAR
STARTCHAR 00B8
ENCODING 184
SWIDTH 300 0
DWIDTH 5 0
BBX 3 4 1 -4
BITMAP
C0
E0
60
E0
ENDCHAR
STARTCHAR 00B9
ENCODING 185
SWIDTH 360 0
DWIDTH 6 0
BBX 6 6 0 6
BITMAP
70
B0
30
30
30
FC
ENDCHAR
STARTCHAR 00BA
ENCODING 186
SWIDTH 360 0
DWIDTH 6 0
BBX 5 6 0 6
BITMAP
70
D8
D8
D8
D8
70
ENDCHAR
STARTCHAR 00BB
ENCODING 187
SWIDTH 540 0
DWIDTH 9 0
BBX 8 7 0 1
BITMAP
CC
66
77
33
77
66
CC
ENDCHAR
STARTCHAR 00BC
ENCODING 188
SWIDTH 900 0
DWIDTH 15 0
BBX 13 12 1 0
BITMAP
7030
B020
3060
30C0
3080
FD80
0370
0270
06B0
0DB0
09F8
1830
ENDCHAR
STARTCHAR 00BD
ENCODING 189
SWIDTH 900 0
DWIDTH 15 0
BBX 13 12 1 0
BITMAP
7030
B020
3060
30C0
3080
FD80
0370
02D8
0618
0C70
08C0
18F8
ENDCHAR
STARTCHAR 00BE
ENCODING 190
SWIDTH 900 0
DWIDTH 15 0
BBX 13 12 1 0
BITMAP
F860
1840
30C0
1980
D900
7300
0670
0470
0CB0
19B0
11F8
3030
ENDCHAR
STARTCHAR 00BF
ENCODING 191
SWIDTH 600 0
DWIDTH 10 0
BBX 8 12 1 -3
BITMAP
18
18
00
18
38
70
E0
C0
C3
C7
7E
3C
ENDCHAR
STARTCHAR 00C0
ENCODING 192
SWIDTH 780 0
DWIDTH 13 0
BBX 11 15 1 0
BITMAP
1C00
0600
0000
0E00
0E00
1B00
1B00
1B00
3180
3180
3F80
7FC0
60C0
60C0
C060
ENDCHAR
STARTCHAR 00C1
ENCODING 193
SWIDTH 780 0
DWIDTH 13 0
BBX 11 15 1 0
BITMAP
0700
0C00
0000
0E00
0E00
1B00
1B00
1B00
3180
3180
3F80
7FC0
60C0
60C0
C060
ENDCHAR
STARTCHAR 00C2
ENCODING 194
SWIDTH 780 0
DWIDTH 13 0
BBX 11 15 1 0
BITMAP
0700
1980
0000
0E00
0E00
1B00
1B00
1B00
3180
3180
3F80
7FC0
60C0
60C0
C060
ENDCHAR
STARTCHAR 00C3
ENCODING 195
SWIDTH 780 0
DWIDTH 13 0
BBX 11 15 1 0
BITMAP
0C80
1380
0000
0E00
0E00
1B00
1B00
1B00
3180
3180
3F80
7FC0
60C0
60C0
C060
ENDCHAR
STARTCHAR 00C4
ENCODING 196
SWIDTH 660 0
DWIDTH 11 0
BBX 11 15 1 0
BITMAP
1980
1980
0000
0E00
0E00
1B00
1B00
1B00
3180
3180
3F80
7FC0
60C0
60C0
C060
ENDCHAR
STARTCHAR 00C5
ENCODING 197
SWIDTH 780 0
DWIDTH 13 0
BBX 11 15 1 0
BITMAP
0600
0900
0900
0E00
0E00
1B00
1B00
1B00
3180
3180
3F80
7FC0
60C0
60C0
C060
ENDCHAR
STARTCHAR 00C6
ENCODING 198
SWIDTH 1080 0
DWIDTH 18 0
BBX 16 12 1 0
BITMAP
03FF
03FF
06C0
06C0
0CC0
0CFE
18FE
1FC0
3FC0
60C0
60FF
C0FF
ENDCHAR
STARTCHAR 00C7
ENCODING 199
SWIDTH 720 0
DWIDTH 12 0
BBX 10 16 1 -4
BITMAP
1F00
7F80
61C0
C0C0
C000
C000
C000
C000
E080
61C0
7F80
1F00
0C00
0E00
0600
0E00
ENDCHAR
STARTCHAR 00C8
ENCODING 200
SWIDTH 660 0
DWIDTH 11 0
BBX 9 15 1 0
BITMAP
3800
0C00
0000
FF80
FF80
C000
C000
C000
FF00
FF00
C000
C000
C000
FF80
FF80
ENDCHAR
STARTCHAR 00C9
ENCODING 201
SWIDTH 660 0
DWIDTH 11 0
BBX 9 15 1 0
BITMAP
0E00
1800
0000
FF80
FF80
C000
C000
C000
FF00
FF00
C000
C000
C000
FF80
FF80
ENDCHAR
STARTCHAR 00CA
ENCODING 202
SWIDTH 660 0
DWIDTH 11 0
BBX 9 15 1 0
BITMAP
0E00
3300
0000
FF80
FF80
C000
C000
C000
FF00
FF00
C000
C000
C000
FF80
FF80
ENDCHAR
STARTCHAR 00CB
ENCODING 203
SWIDTH 660 0
DWIDTH 11 0
BBX 9 15 1 0
BITMAP
3300
3300
0000
FF80
FF80
C000
C000
C000
FF00
FF00
C000
C000
C000
FF80
FF80
ENDCHAR
STARTCHAR 00CC
ENCODING 204
SWIDTH 240 0
DWIDTH 4 0
BBX 4 15 0 0
BITMAP
E0
30
00
60
60
60
60
60
60
60
60
60
60
60
60
ENDCHAR
STARTCHAR 00CD
ENCODING 205
SWIDTH 240 0
DWIDTH 4 0
BBX 4 15 1 0
BITMAP
70
C0
00
C0
C0
C0
C0
C0
C0
C0
C0
C0
C0
C0
C0
ENDCHAR
STARTCHAR 00CE
ENCODING 206
SWIDTH 240 0
DWIDTH 4 0
BBX 6 15 -1 0
BITMAP
38
CC
00
30
30
30
30
30
30
30
30
30
30
30
30
ENDCHAR
STARTCHAR 00CF
ENCODING 207
SWIDTH 240 0
DWIDTH 4 0
BBX 5 15 -1 0
BITMAP
D8
D8
00
30
30
30
30
30
30
30
30
30
30
30
30
ENDCHAR
STARTCHAR 00D0
ENCODING 208
SWIDTH 780 0
DWIDTH 13 0
BBX 11 12 1 0
BITMAP
7F00
7F80
61C0
60E0
6060
FC60
FC60
6060
60E0
61C0
7F80
7F00
ENDCHAR
STARTCHAR 00D1
ENCODING 209
SWIDTH 720 0
DWIDTH 12 0
BBX 10 15 1 0
BITMAP
1900
2700
0000
E0C0
E0C0
F0C0
F8C0
D8C0
DCC0
CEC0
C6C0
C7C0
C3C0
C1C0
C1C0
ENDCHAR
STARTCHAR 00D2
ENCODING 210
SWIDTH 780 0
DWIDTH 13 0
BBX 11 15 1 0
BITMAP
0E00
0300
0000
1F00
3F80
71C0
E0E0
C060
C060
C060
C060
E0E0
71C0
3F80
1F00
ENDCHAR
STARTCHAR 00D3
ENCODING 211
SWIDTH 780 0
DWIDTH 13 0
BBX 11 15 1 0
BITMAP
0700
0C00
0000
1F00
3F80
71C0
E0E0
C060
C060
C060
C060
E0E0
71C0
3F80
1F00
ENDCHAR
STARTCHAR 00D4
ENCODING 212
SWIDTH 780 0
DWIDTH 13 0
BBX 11 15 1 0
BITMAP
0700
1980
0000
1F00
3F80
71C0
E0E0
C060
C060
C060
C060
E0E0
71C0
3F80
1F00
ENDCHAR
STARTCHAR 00D5
ENCODING 213
SWIDTH 780 0
DWIDTH 13 0
BBX 11 15 1 0
BITMAP
0C80
1380
0000
1F00
3F80
71C0
E0E0
C060
C060
C060
C060
E0E0
71C0
3F80
1F00
ENDCHAR
STARTCHAR 00D6
ENCODING 214
SWIDTH 780 0
DWIDTH 13 0
BBX 11 15 1 0
BITMAP
1980
1980
0000
1F00
3F80
71C0
E0E0
C060
C060
C060
C060
E0E0
71C0
3F80
1F00
ENDCHAR
STARTCHAR 00D7
ENCODING 215
SWIDTH 660 0
DWIDTH 11 0
BBX 9 9 1 2
BITMAP
4100
E380
7700
3E00
1C00
3E00
7700
E380
4100
ENDCHAR
STARTCHAR 00D8
ENCODING 216
SWIDTH 780 0
DWIDTH 13 0
BBX 11 12 1 -1
BITMAP
1FC0
3F80
71C0
E3E0
C260
C660
CC60
C860
F0E0
71C0
3F80
7F00
ENDCHAR
STARTCHAR 00D9
ENCODING 217
SWIDTH 720 0
DWIDTH 12 0
BBX 10 15 1 0
BITMAP
1C00
0600
0000
C0C0
C0C0
C0C0
C0C0
C0C0
C0C0
C0C0
C0C0
C0C0
E1C0
7F80
3F00
ENDCHAR
STARTCHAR 00DA
ENCODING 218
SWIDTH 720 0
DWIDTH 12 0
BBX 10 15 1 0
BITMAP
0700
0C00
0000
C0C0
C0C0
C0C0
C0C0
C0C0
C0C0
C0C0
C0C0
C0C0
E1C0
7F80
3F00
ENDCHAR
STARTCHAR 00DB
ENCODING 219
SWIDTH 720 0
DWIDTH 12 0
BBX 10 15 1 0
BITMAP
0E00
3300
0000
C0C0
C0C0
C0C0
C0C0
C0C0
C0C0
C0C0
C0C0
C0C0
E1C0
7F80
3F00
ENDCHAR
STARTCHAR 00DC
ENCODING 220
SWIDTH 720 0
DWIDTH 12 0
BBX 10 15 1 0
BITMAP
3300
3300
0000
C0C0
C0C0
C0C0
C0C0
C0C0
C0C0
C0C0
C0C0
C0C0
E1C0
7F80
3F00
ENDCHAR
STARTCHAR 00DD
ENCODING 221
SWIDTH 600 0
DWIDTH 10 0
BBX 8 15 1 0
BITMAP
0E
18
00
C3
E7
66
6E
3C
3C
18
18
18
18
18
18
ENDCHAR
STARTCHAR 00DE
ENCODING 222
SWIDTH 660 0
DWIDTH 11 0
BBX 9 12 1 0
BITMAP
C000
C000
FE00
FF00
C380
C180
C180
C380
FF00
FE00
C000
C000
ENDCHAR
STARTCHAR 00DF
ENCODING 223
SWIDTH 600 0
DWIDTH 10 0
BBX 8 12 1 0
BITMAP
3C
7E
C6
C6
CC
D8
DC
CE
C7
C3
DF
DE
ENDCHAR
STARTCHAR 00E0
ENCODING 224
SWIDTH 600 0
DWIDTH 10 0
BBX 8 13 1 0
BITMAP
60
30
18
00
7C
FE
06
7E
FE
C6
CE
FF
73
ENDCHAR
STARTCHAR 00E1
ENCODING 225
SWIDTH 600 0
DWIDTH 10 0
BBX 8 13 1 0
BITMAP
06
0C
18
00
7C
FE
06
7E
FE
C6
CE
FF
73
ENDCHAR
STARTCHAR 00E2
ENCODING 226
SWIDTH 600 0
DWIDTH 10 0
BBX 8 13 1 0
BITMAP
18
3C
66
00
7C
FE
06
7E
FE
C6
CE
FF
73
ENDCHAR
STARTCHAR 00E3
ENCODING 227
SWIDTH 600 0
DWIDTH 10 0
BBX 8 12 1 0
BITMAP
32
4E
00
7C
FE
06
7E
FE
C6
CE
FF
73
ENDCHAR
STARTCHAR 00E4
ENCODING 228
SWIDTH 600 0
DWIDTH 10 0
BBX 8 12 1 0
BITMAP
76
66
00
7C
FE
06
7E
FE
C6
CE
FF
73
ENDCHAR
STARTCHAR 00E5
ENCODING 229
SWIDTH 600 0
DWIDTH 10 0
BBX 8 14 1 0
BITMAP
18
24
24
18
00
7C
FE
06
7E
FE
C6
CE
FF
73
ENDCHAR
STARTCHAR 00E6
ENCODING 230
SWIDTH 900 0
DWIDTH 15 0
BBX 13 9 1 0
BITMAP
7DE0
FFF0
0618
7FF8
FFF8
C600
CF18
FBF0
71E0
ENDCHAR
STARTCHAR 00E7
ENCODING 231
SWIDTH 540 0
DWIDTH 9 0
BBX 7 13 1 -4
BITMAP
3C
7E
C6
C0
C0
C0
C6
7E
3C
30
38
18
38
ENDCHAR
STARTCHAR 00E8
ENCODING 232
SWIDTH 540 0
DWIDTH 9 0
BBX 7 13 1 0
BITMAP
60
30
18
00
38
7C
C6
FE
FE
C0
C6
7C
38
ENDCHAR
STARTCHAR 00E9
ENCODING 233
SWIDTH 540 0
DWIDTH 9 0
BBX 7 13 1 0
BITMAP
06
0C
18
00
38
7C
C6
FE
FE
C0
C6
7C
38
ENDCHAR
STARTCHAR 00EA
ENCODING 234
SWIDTH 540 0
DWIDTH 9 0
BBX 7 13 1 0
BITMAP
18
3C
66
00
38
7C
C6
FE
FE
C0
C6
7C
38
ENDCHAR
STARTCHAR 00EB
ENCODING 235
SWIDTH 540 0
DWIDTH 9 0
BBX 7 12 1 0
BITMAP
76
66
00
38
7C
C6
FE
FE
C0
C6
7C
38
ENDCHAR
STARTCHAR 00EC
ENCODING 236
SWIDTH 240 0
DWIDTH 4 0
BBX 4 13 -1 0
BITMAP
C0
60
30
00
30
30
30
30
30
30
30
30
30
ENDCHAR
STARTCHAR 00ED
ENCODING 237
SWIDTH 300 0
DWIDTH 5 0
BBX 4 13 1 0
BITMAP
30
60
C0
00
C0
C0
C0
C0
C0
C0
C0
C0
C0
ENDCHAR
STARTCHAR 00EE
ENCODING 238
SWIDTH 240 0
DWIDTH 4 0
BBX 6 13 -1 0
BITMAP
30
78
CC
00
30
30
30
30
30
30
30
30
30
ENDCHAR
STARTCHAR 00EF
ENCODING 239
SWIDTH 240 0
DWIDTH 4 0
BBX 5 12 -1 0
BITMAP
D8
D8
00
30
30
30
30
30
30
30
30
30
ENDCHAR
STARTCHAR 00F0
ENCODING 240
SWIDTH 600 0
DWIDTH 10 0
BBX 8 12 1 0
BITMAP
32
3E
2E
06
3F
7F
E3
C3
C3
E7
7E
3C
ENDCHAR
STARTCHAR 00F1
ENCODING 241
SWIDTH 600 0
DWIDTH 10 0
BBX 8 12 1 0
BITMAP
72
4E
00
DE
FF
E7
C3
C3
C3
C3
C3
C3
ENDCHAR
STARTCHAR 00F2
ENCODING 242
SWIDTH 600 0
DWIDTH 10 0
BBX 8 13 1 0
BITMAP
30
18
0C
00
3C
7E
E7
C3
C3
C3
E7
7E
3C
ENDCHAR
STARTCHAR 00F3
ENCODING 243
SWIDTH 600 0
DWIDTH 10 0
BBX 8 13 1 0
BITMAP
06
0C
18
00
3C
7E
E7
C3
C3
C3
E7
7E
3C
ENDCHAR
STARTCHAR 00F4
ENCODING 244
SWIDTH 600 0
DWIDTH 10 0
BBX 8 13 1 0
BITMAP
18
3C
66
00
3C
7E
E7
C3
C3
C3
E7
7E
3C
ENDCHAR
STARTCHAR 00F5
ENCODING 245
SWIDTH 600 0
DWIDTH 10 0
BBX 8 12 1 0
BITMAP
32
4E
00
3C
7E
E7
C3
C3
C3
E7
7E
3C
ENDCHAR
STARTCHAR 00F6
ENCODING 246
SWIDTH 600 0
DWIDTH 10 0
BBX 8 12 1 0
BITMAP
76
66
00
3C
7E
E7
C3
C3
C3
E7
7E
3C
ENDCHAR
STARTCHAR 00F7
ENCODING 247
SWIDTH 540 0
DWIDTH 9 0
BBX 8 8 1 2
BITMAP
18
18
00
FF
FF
00
18
18
ENDCHAR
STARTCHAR 00F8
ENCODING 248
SWIDTH 600 0
DWIDTH 10 0
BBX 8 9 1 -1
BITMAP
3D
7E
E7
CF
DB
F3
E7
7E
BC
ENDCHAR
STARTCHAR 00F9
ENCODING 249
SWIDTH 600 0
DWIDTH 10 0
BBX 8 13 1 0
BITMAP
30
18
0C
00
C3
C3
C3
C3
C3
C3
E7
FF
7B
ENDCHAR
STARTCHAR 00FA
ENCODING 250
SWIDTH 600 0
DWIDTH 10 0
BBX 8 13 1 0
BITMAP
06
0C
18
00
C3
C3
C3
C3
C3
C3
E7
FF
7B
ENDCHAR
STARTCHAR 00FB
ENCODING 251
SWIDTH 600 0
DWIDTH 10 0
BBX 8 13 1 0
BITMAP
18
3C
66
00
C3
C3
C3
C3
C3
C3
E7
FF
7B
ENDCHAR
STARTCHAR 00FC
ENCODING 252
SWIDTH 600 0
DWIDTH 10 0
BBX 8 12 1 0
BITMAP
33
33
00
C3
C3
C3
C3
C3
C3
E7
FF
7B
ENDCHAR
STARTCHAR 00FD
ENCODING 253
SWIDTH 660 0
DWIDTH 11 0
BBX 9 17 1 -4
BITMAP
0300
0600
0C00
0000
C180
E380
6300
6300
3700
3600
3600
1C00
1C00
1C00
1800
7800
7000
ENDCHAR
STARTCHAR 00FE
ENCODING 254
SWIDTH 600 0
DWIDTH 10 0
BBX 8 16 1 -4
BITMAP
C0
C0
C0
DE
FE
E7
C3
C3
C3
E7
FE
DC
C0
C0
C0
C0
ENDCHAR
STARTCHAR 00FF
ENCODING 255
SWIDTH 660 0
DWIDTH 11 0
BBX 9 16 1 -4
BITMAP
3300
3300
0000
C180
E380
6300
6300
3700
3600
3600
1C00
1C00
1C00
1800
7800
7000
ENDCHAR
STARTCHAR 0100
ENCODING 256
SWIDTH 660 0
DWIDTH 11 0
BBX 11 14 0 0
BITMAP
1F00
0000
0E00
0E00
1B00
1B00
1B00
3180
3180
3F80
7FC0
60C0
60C0
C060
ENDCHAR
STARTCHAR 0101
ENCODING 257
SWIDTH 540 0
DWIDTH 9 0
BBX 8 11 1 0
BITMAP
7E
00
7C
FE
06
7E
FE
C6
CE
FF
73
ENDCHAR
STARTCHAR 0102
ENCODING 258
SWIDTH 660 0
DWIDTH 11 0
BBX 11 15 0 0
BITMAP
1080
0F00
0000
0E00
0E00
1B00
1B00
1B00
3180
3180
3F80
7FC0
60C0
60C0
C060
ENDCHAR
STARTCHAR 0103
ENCODING 259
SWIDTH 540 0
DWIDTH 9 0
BBX 8 13 1 0
BITMAP
22
36
1C
00
7C
FE
06
7E
FE
C6
CE
FF
73
ENDCHAR
STARTCHAR 0104
ENCODING 260
SWIDTH 660 0
DWIDTH 11 0
BBX 11 16 0 -4
BITMAP
0E00
0E00
1B00
1B00
1B00
3180
3180
3F80
7FC0
60C0
60C0
C060
0060
00C0
00C0
00E0
ENDCHAR
STARTCHAR 0105
ENCODING 261
SWIDTH 540 0
DWIDTH 9 0
BBX 8 13 1 -4
BITMAP
7C
FE
06
7E
FE
C6
CE
FF
73
06
0C
0C
0E
ENDCHAR
STARTCHAR 0106
ENCODING 262
SWIDTH 720 0
DWIDTH 12 0
BBX 10 15 1 0
BITMAP
0700
0C00
0000
1F00
7F80
61C0
C0C0
C000
C000
C000
C000
E080
61C0
7F80
1F00
ENDCHAR
STARTCHAR 0107
ENCODING 263
SWIDTH 540 0
DWIDTH 9 0
BBX 7 13 1 0
BITMAP
06
0C
18
00
3C
7E
C6
C0
C0
C0
C6
7E
3C
ENDCHAR
STARTCHAR 0108
ENCODING 264
SWIDTH 720 0
DWIDTH 12 0
BBX 10 15 1 0
BITMAP
0700
1980
0000
1F00
7F80
61C0
C0C0
C000
C000
C000
C000
E080
61C0
7F80
1F00
ENDCHAR
STARTCHAR 0109
ENCODING 265
SWIDTH 540 0
DWIDTH 9 0
BBX 7 13 1 0
BITMAP
18
3C
66
00
3C
7E
C6
C0
C0
C0
C6
7E
3C
ENDCHAR
STARTCHAR 010A
ENCODING 266
SWIDTH 720 0
DWIDTH 12 0
BBX 10 15 1 0
BITMAP
0600
0600
0000
1F00
7F80
61C0
C0C0
C000
C000
C000
C000
E080
61C0
7F80
1F00
ENDCHAR
STARTCHAR 010B
ENCODING 267
SWIDTH 540 0
DWIDTH 9 0
BBX 7 12 1 0
BITMAP
18
18
00
3C
7E
C6
C0
C0
C0
C6
7E
3C
ENDCHAR
STARTCHAR 010C
ENCODING 268
SWIDTH 720 0
DWIDTH 12 0
BBX 10 15 1 0
BITMAP
1900
0E00
0000
1F00
7F80
61C0
C0C0
C000
C000
C000
C000
E080
61C0
7F80
1F00
ENDCHAR
STARTCHAR 010D
ENCODING 269
SWIDTH 540 0
DWIDTH 9 0
BBX 7 13 1 0
BITMAP
42
34
18
00
3C
7E
C6
C0
C0
C0
C6
7E
3C
ENDCHAR
STARTCHAR 010E
ENCODING 270
SWIDTH 720 0
DWIDTH 12 0
BBX 10 15 1 0
BITMAP
3200
1C00
0000
FE00
FF00
C380
C1C0
C0C0
C0C0
C0C0
C0C0
C1C0
C380
FF00
FE00
ENDCHAR
STARTCHAR 010F
ENCODING 271
SWIDTH 720 0
DWIDTH 12 0
BBX 11 12 1 0
BITMAP
0360
0320
0360
3B00
7F00
E700
C300
C300
C300
E700
7F00
7B00
ENDCHAR
STARTCHAR 0110
ENCODING 272
SWIDTH 720 0
DWIDTH 12 0
BBX 11 12 0 0
BITMAP
7F00
7F80
61C0
60E0
6060
FC60
FC60
6060
60E0
61C0
7F80
7F00
ENDCHAR
STARTCHAR 0111
ENCODING 273
SWIDTH 600 0
DWIDTH 10 0
BBX 9 12 1 0
BITMAP
0300
0F80
0F80
0300
7B00
7F00
C700
C300
C300
C700
7F00
7B00
ENDCHAR
STARTCHAR 0112
ENCODING 274
SWIDTH 660 0
DWIDTH 11 0
BBX 9 14 1 0
BITMAP
3F00
0000
FF80
FF80
C000
C000
C000
FF00
FF00
C000
C000
C000
FF80
FF80
ENDCHAR
STARTCHAR 0113
ENCODING 275
SWIDTH 540 0
DWIDTH 9 0
BBX 7 11 1 0
BITMAP
7E
00
38
7C
C6
FE
FE
C0
C6
7C
38
ENDCHAR
STARTCHAR 0114
ENCODING 276
SWIDTH 660 0
DWIDTH 11 0
BBX 9 15 1 0
BITMAP
2100
1E00
0000
FF80
FF80
C000
C000
C000
FF00
FF00
C000
C000
C000
FF80
FF80
ENDCHAR
STARTCHAR 0115
ENCODING 277
SWIDTH 540 0
DWIDTH 9 0
BBX 7 13 1 0
BITMAP
44
6C
38
00
38
7C
C6
FE
FE
C0
C6
7C
38
ENDCHAR
STARTCHAR 0116
ENCODING 278
SWIDTH 660 0
DWIDTH 11 0
BBX 9 15 1 0
BITMAP
0C00
0C00
0000
FF80
FF80
C000
C000
C000
FF00
FF00
C000
C000
C000
FF80
FF80
ENDCHAR
STARTCHAR 0117
ENCODING 279
SWIDTH 540 0
DWIDTH 9 0
BBX 7 12 1 0
BITMAP
18
18
00
38
7C
C6
FE
FE
C0
C6
7C
38
ENDCHAR
STARTCHAR 0118
ENCODING 280
SWIDTH 660 0
DWIDTH 11 0
BBX 9 16 1 -4
BITMAP
FF80
FF80
C000
C000
C000
FF00
FF00
C000
C000
C000
FF80
FF80
0300
0600
0600
0700
ENDCHAR
STARTCHAR 0119
ENCODING 281
SWIDTH 540 0
DWIDTH 9 0
BBX 7 12 1 -3
BITMAP
38
7C
C6
FE
FE
C0
C6
7C
3C
18
18
1C
ENDCHAR
STARTCHAR 011A
ENCODING 282
SWIDTH 660 0
DWIDTH 11 0
BBX 9 15 1 0
BITMAP
3300
1E00
0000
FF80
FF80
C000
C000
C000
FF00
FF00
C000
C000
C000
FF80
FF80
ENDCHAR
STARTCHAR 011B
ENCODING 283
SWIDTH 540 0
DWIDTH 9 0
BBX 7 13 1 0
BITMAP
42
34
18
00
38
7C
C6
FE
FE
C0
C6
7C
38
ENDCHAR
STARTCHAR 011C
ENCODING 284
SWIDTH 780 0
DWIDTH 13 0
BBX 11 15 1 0
BITMAP
0700
1980
0000
1F80
3FC0
70E0
E040
C000
C000
C3E0
C3E0
E060
7060
3FE0
1F80
ENDCHAR
STARTCHAR 011D
ENCODING 285
SWIDTH 600 0
DWIDTH 10 0
BBX 8 17 1 -4
BITMAP
18
3C
66
00
3B
7F
E7
C3
C3
C3
E7
7F
7B
03
C7
FE
3C
ENDCHAR
STARTCHAR 011E
ENCODING 286
SWIDTH 780 0
DWIDTH 13 0
BBX 11 15 1 0
BITMAP
1080
0F00
0000
1F80
3FC0
70E0
E040
C000
C000
C3E0
C3E0
E060
7060
3FE0
1F80
ENDCHAR
STARTCHAR 011F
ENCODING 287
SWIDTH 600 0
DWIDTH 10 0
BBX 8 17 1 -4
BITMAP
22
36
1C
00
3B
7F
E7
C3
C3
C3
E7
7F
7B
03
C7
FE
3C
ENDCHAR
STARTCHAR 0120
ENCODING 288
SWIDTH 780 0
DWIDTH 13 0
BBX 11 15 1 0
BITMAP
0600
0600
0000
1F80
3FC0
70E0
E040
C000
C000
C3E0
C3E0
E060
7060
3FE0
1F80
ENDCHAR
STARTCHAR 0121
ENCODING 289
SWIDTH 600 0
DWIDTH 10 0
BBX 8 16 1 -4
BITMAP
0C
0C
00
3B
7F
E7
C3
C3
C3
E7
7F
7B
03
C7
FE
3C
ENDCHAR
STARTCHAR 0122
ENCODING 290
SWIDTH 780 0
DWIDTH 13 0
BBX 11 16 1 -4
BITMAP
1F80
3FC0
70E0
E040
C000
C000
C3E0
C3E0
E060
7060
3FE0
1F80
0000
0600
0600
0200
ENDCHAR
STARTCHAR 0123
ENCODING 291
SWIDTH 600 0
DWIDTH 10 0
BBX 8 17 1 -4
BITMAP
10
18
18
00
3B
7F
E7
C3
C3
C3
E7
7F
7B
03
C7
FE
3C
ENDCHAR
STARTCHAR 0124
ENCODING 292
SWIDTH 720 0
DWIDTH 12 0
BBX 10 15 1 0
BITMAP
0E00
3300
0000
C0C0
C0C0
C0C0
C0C0
C0C0
FFC0
FFC0
C0C0
C0C0
C0C0
C0C0
C0C0
ENDCHAR
STARTCHAR 0125
ENCODING 293
SWIDTH 600 0
DWIDTH 10 0
BBX 8 15 1 0
BITMAP
1C
66
00
C0
C0
C0
DE
FF
E7
C3
C3
C3
C3
C3
C3
ENDCHAR
STARTCHAR 0126
ENCODING 294
SWIDTH 720 0
DWIDTH 12 0
BBX 12 12 0 0
BITMAP
3030
3030
7FF0
7FF0
3030
3FF0
3FF0
3030
3030
3030
3030
3030
ENDCHAR
STARTCHAR 0127
ENCODING 295
SWIDTH 600 0
DWIDTH 10 0
BBX 9 12 0 0
BITMAP
6000
FC00
6000
6F00
7F80
7380
6180
6180
6180
6180
6180
6180
ENDCHAR
STARTCHAR 0128
ENCODING 296
SWIDTH 240 0
DWIDTH 4 0
BBX 7 15 -1 0
BITMAP
72
9C
00
30
30
30
30
30
30
30
30
30
30
30
30
ENDCHAR
STARTCHAR 0129
ENCODING 297
SWIDTH 240 0
DWIDTH 4 0
BBX 6 12 -1 0
BITMAP
64
9C
00
30
30
30
30
30
30
30
30
30
ENDCHAR
STARTCHAR 012A
ENCODING 298
SWIDTH 240 0
DWIDTH 4 0
BBX 5 14 0 0
BITMAP
F8
00
60
60
60
60
60
60
60
60
60
60
60
60
ENDCHAR
STARTCHAR 012B
ENCODING 299
SWIDTH 240 0
DWIDTH 4 0
BBX 6 11 -1 0
BITMAP
FC
00
30
30
30
30
30
30
30
30
30
ENDCHAR
STARTCHAR 012C
ENCODING 300
SWIDTH 240 0
DWIDTH 4 0
BBX 7 15 -1 0
BITMAP
82
7C
00
30
30
30
30
30
30
30
30
30
30
30
30
ENDCHAR
STARTCHAR 012D
ENCODING 301
SWIDTH 240 0
DWIDTH 4 0
BBX 5 13 0 0
BITMAP
88
D8
70
00
60
60
60
60
60
60
60
60
60
ENDCHAR
STARTCHAR 012E
ENCODING 302
SWIDTH 240 0
DWIDTH 4 0
BBX 3 16 0 -4
BITMAP
60
60
60
60
60
60
60
60
60
60
60
60
60
C0
C0
E0
ENDCHAR
STARTCHAR 012F
ENCODING 303
SWIDTH 240 0
DWIDTH 4 0
BBX 3 16 0 -4
BITMAP
60
60
00
60
60
60
60
60
60
60
60
60
60
C0
C0
E0
ENDCHAR
STARTCHAR 0130
ENCODING 304
SWIDTH 240 0
DWIDTH 4 0
BBX 2 15 1 0
BITMAP
C0
C0
00
C0
C0
C0
C0
C0
C0
C0
C0
C0
C0
C0
C0
ENDCHAR
STARTCHAR 0131
ENCODING 305
SWIDTH 240 0
DWIDTH 4 0
BBX 2 9 1 0
BITMAP
C0
C0
C0
C0
C0
C0
C0
C0
C0
ENDCHAR
STARTCHAR 0132
ENCODING 306
SWIDTH 780 0
DWIDTH 13 0
BBX 11 12 1 0
BITMAP
C1E0
C1E0
C060
C060
C060
C060
C060
C060
D860
DC60
CFC0
C780
ENDCHAR
STARTCHAR 0133
ENCODING 307
SWIDTH 540 0
DWIDTH 9 0
BBX 8 16 1 -4
BITMAP
C3
C3
00
C3
C3
C3
C3
C3
C3
C3
C3
C3
03
03
07
06
ENDCHAR
STARTCHAR 0134
ENCODING 308
SWIDTH 540 0
DWIDTH 9 0
BBX 9 15 0 0
BITMAP
0700
1980
0000
0F00
0F00
0300
0300
0300
0300
0300
0300
C300
E300
7E00
3C00
ENDCHAR
STARTCHAR 0135
ENCODING 309
SWIDTH 240 0
DWIDTH 4 0
BBX 6 17 -1 -4
BITMAP
30
78
CC
00
30
30
30
30
30
30
30
30
30
30
30
70
60
ENDCHAR
STARTCHAR 0136
ENCODING 310
SWIDTH 720 0
DWIDTH 12 0
BBX 11 16 1 -4
BITMAP
C0E0
C1C0
C700
CE00
DC00
FC00
FE00
C600
C300
C180
C0C0
C0E0
0000
0600
0600
0200
ENDCHAR
STARTCHAR 0137
ENCODING 311
SWIDTH 540 0
DWIDTH 9 0
BBX 8 16 1 -4
BITMAP
C0
C0
C0
C7
CE
DC
F8
F8
CC
CE
C6
C7
00
18
18
08
ENDCHAR
STARTCHAR 0138
ENCODING 312
SWIDTH 540 0
DWIDTH 9 0
BBX 8 9 1 0
BITMAP
C7
CE
DC
F8
F8
DC
CE
C6
C7
ENDCHAR
STARTCHAR 0139
ENCODING 313
SWIDTH 600 0
DWIDTH 10 0
BBX 8 15 1 0
BITMAP
38
60
00
C0
C0
C0
C0
C0
C0
C0
C0
C0
C0
FF
FF
ENDCHAR
STARTCHAR 013A
ENCODING 314
SWIDTH 240 0
DWIDTH 4 0
BBX 4 15 1 0
BITMAP
70
C0
00
C0
C0
C0
C0
C0
C0
C0
C0
C0
C0
C0
C0
ENDCHAR
STARTCHAR 013B
ENCODING 315
SWIDTH 600 0
DWIDTH 10 0
BBX 8 16 1 -4
BITMAP
C0
C0
C0
C0
C0
C0
C0
C0
C0
C0
FF
FF
00
18
18
08
ENDCHAR
STARTCHAR 013C
ENCODING 316
SWIDTH 240 0
DWIDTH 4 0
BBX 2 16 1 -4
BITMAP
C0
C0
C0
C0
C0
C0
C0
C0
C0
C0
C0
C0
00
C0
C0
40
ENDCHAR
STARTCHAR 013D
ENCODING 317
SWIDTH 600 0
DWIDTH 10 0
BBX 8 12 1 0
BITMAP
C6
C2
C6
C0
C0
C0
C0
C0
C0
C0
FF
FF
ENDCHAR
STARTCHAR 013E
ENCODING 318
SWIDTH 420 0
DWIDTH 7 0
BBX 5 12 1 0
BITMAP
D8
C8
D8
C0
C0
C0
C0
C0
C0
C0
C0
C0
ENDCHAR
STARTCHAR 013F
ENCODING 319
SWIDTH 600 0
DWIDTH 10 0
BBX 8 12 1 0
BITMAP
C0
C0
C0
C0
C0
CC
CC
C0
C0
C0
FF
FF
ENDCHAR
STARTCHAR 0140
ENCODING 320
SWIDTH 420 0
DWIDTH 7 0
BBX 6 12 1 0
BITMAP
C0
C0
C0
C0
C0
CC
CC
C0
C0
C0
C0
C0
ENDCHAR
STARTCHAR 0141
ENCODING 321
SWIDTH 600 0
DWIDTH 10 0
BBX 9 12 0 0
BITMAP
6000
6000
6000
6800
7800
7000
E000
E000
6000
6000
7F80
7F80
ENDCHAR
STARTCHAR 0142
ENCODING 322
SWIDTH 240 0
DWIDTH 4 0
BBX 4 12 0 0
BITMAP
60
60
60
60
70
70
E0
E0
60
60
60
60
ENDCHAR
STARTCHAR 0143
ENCODING 323
SWIDTH 720 0
DWIDTH 12 0
BBX 10 15 1 0
BITMAP
0700
0C00
0000
E0C0
E0C0
F0C0
F8C0
D8C0
DCC0
CEC0
C6C0
C7C0
C3C0
C1C0
C1C0
ENDCHAR
STARTCHAR 0144
ENCODING 324
SWIDTH 600 0
DWIDTH 10 0
BBX 8 13 1 0
BITMAP
03
06
0C
00
6F
7F
73
61
61
61
61
61
61
ENDCHAR
STARTCHAR 0145
ENCODING 325
SWIDTH 720 0
DWIDTH 12 0
BBX 10 16 1 -4
BITMAP
E0C0
E0C0
F0C0
F8C0
D8C0
DCC0
CEC0
C6C0
C7C0
C3C0
C1C0
C1C0
0000
0C00
0C00
0400
ENDCHAR
STARTCHAR 0146
ENCODING 326
SWIDTH 600 0
DWIDTH 10 0
BBX 8 13 1 -4
BITMAP
6F
7F
73
61
61
61
61
61
61
00
0C
0C
04
ENDCHAR
STARTCHAR 0147
ENCODING 327
SWIDTH 720 0
DWIDTH 12 0
BBX 10 15 1 0
BITMAP
3200
1C00
0000
E0C0
E0C0
F0C0
F8C0
D8C0
DCC0
CEC0
C6C0
C7C0
C3C0
C1C0
C1C0
ENDCHAR
STARTCHAR 0148
ENCODING 328
SWIDTH 600 0
DWIDTH 10 0
BBX 8 13 1 0
BITMAP
33
1E
0C
00
6F
7F
73
61
61
61
61
61
61
ENDCHAR
STARTCHAR 0149
ENCODING 329
SWIDTH 720 0
DWIDTH 12 0
BBX 10 12 1 0
BITMAP
C000
C000
4000
7780
FFC0
39C0
30C0
30C0
30C0
30C0
30C0
30C0
ENDCHAR
STARTCHAR 014A
ENCODING 330
SWIDTH 720 0
DWIDTH 12 0
BBX 10 12 1 0
BITMAP
6780
6FC0
78C0
6040
6040
6040
6040
6040
6040
6440
6FC0
6780
ENDCHAR
STARTCHAR 014B
ENCODING 331
SWIDTH 600 0
DWIDTH 10 0
BBX 8 13 1 -4
BITMAP
6F
7F
73
61
61
61
61
61
61
01
01
07
07
ENDCHAR
STARTCHAR 014C
ENCODING 332
SWIDTH 780 0
DWIDTH 13 0
BBX 11 14 1 0
BITMAP
1F80
0000
1F00
3F80
71C0
E0E0
C060
C060
C060
C060
E0E0
71C0
3F80
1F00
ENDCHAR
STARTCHAR 014D
ENCODING 333
SWIDTH 600 0
DWIDTH 10 0
BBX 8 11 1 0
BITMAP
7E
00
3C
7E
E7
C3
C3
C3
E7
7E
3C
ENDCHAR
STARTCHAR 014E
ENCODING 334
SWIDTH 780 0
DWIDTH 13 0
BBX 11 15 1 0
BITMAP
1080
0F00
0000
1F00
3F80
71C0
E0E0
C060
C060
C060
C060
E0E0
71C0
3F80
1F00
ENDCHAR
STARTCHAR 014F
ENCODING 335
SWIDTH 600 0
DWIDTH 10 0
BBX 8 13 1 0
BITMAP
22
36
1C
00
3C
7E
E7
C3
C3
C3
E7
7E
3C
ENDCHAR
STARTCHAR 0150
ENCODING 336
SWIDTH 780 0
DWIDTH 13 0
BBX 11 15 1 0
BITMAP
06C0
0980
0000
1F00
3F80
71C0
E0E0
C060
C060
C060
C060
E0E0
71C0
3F80
1F00
ENDCHAR
STARTCHAR 0151
ENCODING 337
SWIDTH 600 0
DWIDTH 10 0
BBX 9 12 1 0
BITMAP
1F80
1300
0000
3C00
7E00
E700
C300
C300
C300
E700
7E00
3C00
ENDCHAR
STARTCHAR 0152
ENCODING 338
SWIDTH 1020 0
DWIDTH 17 0
BBX 15 12 1 -1
BITMAP
1FFE
3FFE
6180
E180
C180
C1FC
C1FC
C180
E180
7180
3FFE
1FFE
ENDCHAR
STARTCHAR 0153
ENCODING 339
SWIDTH 900 0
DWIDTH 15 0
BBX 13 9 1 0
BITMAP
3CE0
7FF0
E718
C3F8
C3F8
C300
E718
7FF0
3CE0
ENDCHAR
STARTCHAR 0154
ENCODING 340
SWIDTH 720 0
DWIDTH 12 0
BBX 11 15 1 0
BITMAP
0700
0C00
0000
FF00
FF80
C0C0
C0C0
C0C0
FF80
FE00
C700
C380
C180
C1C0
C0E0
ENDCHAR
STARTCHAR 0155
ENCODING 341
SWIDTH 420 0
DWIDTH 7 0
BBX 6 13 1 0
BITMAP
04
0C
18
00
6C
7C
70
60
60
60
60
60
60
ENDCHAR
STARTCHAR 0156
ENCODING 342
SWIDTH 720 0
DWIDTH 12 0
BBX 11 16 1 -4
BITMAP
FF00
FF80
C0C0
C0C0
C0C0
FF80
FE00
C700
C380
C180
C1C0
C0E0
0000
0600
0600
0200
ENDCHAR
STARTCHAR 0157
ENCODING 343
SWIDTH 420 0
DWIDTH 7 0
BBX 6 13 1 -4
BITMAP
6C
7C
70
60
60
60
60
60
60
00
30
30
10
ENDCHAR
STARTCHAR 0158
ENCODING 344
SWIDTH 720 0
DWIDTH 12 0
BBX 11 15 1 0
BITMAP
3300
1E00
0000
FF00
FF80
C0C0
C0C0
C0C0
FF80
FE00
C700
C380
C180
C1C0
C0E0
ENDCHAR
STARTCHAR 0159
ENCODING 345
SWIDTH 420 0
DWIDTH 7 0
BBX 6 13 1 0
BITMAP
40
34
18
00
6C
7C
70
60
60
60
60
60
60
ENDCHAR
STARTCHAR 015A
ENCODING 346
SWIDTH 660 0
DWIDTH 11 0
BBX 10 15 0 0
BITMAP
0700
0C00
0000
1F00
3FC0
60C0
6000
7000
3F00
0F80
01C0
C0C0
E0C0
7F80
3F00
ENDCHAR
STARTCHAR 015B
ENCODING 347
SWIDTH 540 0
DWIDTH 9 0
BBX 7 13 1 0
BITMAP
0C
18
30
00
7C
FE
C6
F0
7C
0E
C6
FE
7C
ENDCHAR
STARTCHAR 015C
ENCODING 348
SWIDTH 660 0
DWIDTH 11 0
BBX 10 15 0 0
BITMAP
0700
1980
0000
1F00
3FC0
60C0
6000
7000
3F00
0F80
01C0
C0C0
E0C0
7F80
3F00
ENDCHAR
STARTCHAR 015D
ENCODING 349
SWIDTH 540 0
DWIDTH 9 0
BBX 7 13 1 0
BITMAP
18
3C
66
00
7C
FE
C6
F0
7C
0E
C6
FE
7C
ENDCHAR
STARTCHAR 015E
ENCODING 350
SWIDTH 660 0
DWIDTH 11 0
BBX 10 16 0 -4
BITMAP
1F00
3FC0
60C0
6000
7000
3F00
0F80
01C0
C0C0
E0C0
7F80
3F00
0C00
0E00
0600
0E00
ENDCHAR
STARTCHAR 015F
ENCODING 351
SWIDTH 540 0
DWIDTH 9 0
BBX 7 13 1 -4
BITMAP
7C
FE
C6
F0
7C
0E
C6
FE
7C
30
38
18
38
ENDCHAR
STARTCHAR 0160
ENCODING 352
SWIDTH 660 0
DWIDTH 11 0
BBX 10 15 0 0
BITMAP
1900
0E00
0000
1F00
3FC0
60C0
6000
7000
3F00
0F80
01C0
C0C0
E0C0
7F80
3F00
ENDCHAR
STARTCHAR 0161
ENCODING 353
SWIDTH 540 0
DWIDTH 9 0
BBX 7 13 1 0
BITMAP
42
34
18
00
7C
FE
C6
F0
7C
0E
C6
FE
7C
ENDCHAR
STARTCHAR 0162
ENCODING 354
SWIDTH 600 0
DWIDTH 10 0
BBX 8 16 1 -4
BITMAP
FF
FF
18
18
18
18
18
18
18
18
18
18
00
18
18
08
ENDCHAR
STARTCHAR 0163
ENCODING 355
SWIDTH 360 0
DWIDTH 6 0
BBX 5 15 0 -4
BITMAP
20
60
F8
F8
60
60
60
60
60
78
38
00
30
30
10
ENDCHAR
STARTCHAR 0164
ENCODING 356
SWIDTH 600 0
DWIDTH 10 0
BBX 8 15 1 0
BITMAP
66
3C
00
FF
FF
18
18
18
18
18
18
18
18
18
18
ENDCHAR
STARTCHAR 0165
ENCODING 357
SWIDTH 480 0
DWIDTH 8 0
BBX 8 13 0 0
BITMAP
03
01
23
60
F8
F8
60
60
60
60
60
78
38
ENDCHAR
STARTCHAR 0166
ENCODING 358
SWIDTH 600 0
DWIDTH 10 0
BBX 8 12 1 0
BITMAP
FF
FF
18
18
18
7E
7E
18
18
18
18
18
ENDCHAR
STARTCHAR 0167
ENCODING 359
SWIDTH 360 0
DWIDTH 6 0
BBX 5 11 0 0
BITMAP
20
60
F8
F8
60
F8
F8
60
60
78
38
ENDCHAR
STARTCHAR 0168
ENCODING 360
SWIDTH 720 0
DWIDTH 12 0
BBX 10 15 1 0
BITMAP
1900
2700
0000
C0C0
C0C0
C0C0
C0C0
C0C0
C0C0
C0C0
C0C0
C0C0
E1C0
7F80
3F00
ENDCHAR
STARTCHAR 0169
ENCODING 361
SWIDTH 600 0
DWIDTH 10 0
BBX 8 12 1 0
BITMAP
32
4E
00
C3
C3
C3
C3
C3
C3
E7
FF
7B
ENDCHAR
STARTCHAR 016A
ENCODING 362
SWIDTH 720 0
DWIDTH 12 0
BBX 10 14 1 0
BITMAP
3F00
0000
C0C0
C0C0
C0C0
C0C0
C0C0
C0C0
C0C0
C0C0
C0C0
E1C0
7F80
3F00
ENDCHAR
STARTCHAR 016B
ENCODING 363
SWIDTH 600 0
DWIDTH 10 0
BBX 8 11 1 0
BITMAP
7E
00
C3
C3
C3
C3
C3
C3
E7
FF
7B
ENDCHAR
STARTCHAR 016C
ENCODING 364
SWIDTH 720 0
DWIDTH 12 0
BBX 10 15 1 0
BITMAP
2100
1E00
0000
C0C0
C0C0
C0C0
C0C0
C0C0
C0C0
C0C0
C0C0
C0C0
E1C0
7F80
3F00
ENDCHAR
STARTCHAR 016D
ENCODING 365
SWIDTH 600 0
DWIDTH 10 0
BBX 8 13 1 0
BITMAP
22
36
1C
00
C3
C3
C3
C3
C3
C3
E7
FF
7B
ENDCHAR
STARTCHAR 016E
ENCODING 366
SWIDTH 720 0
DWIDTH 12 0
BBX 10 17 1 0
BITMAP
0C00
1200
1200
0C00
0000
C0C0
C0C0
C0C0
C0C0
C0C0
C0C0
C0C0
C0C0
C0C0
E1C0
7F80
3F00
ENDCHAR
STARTCHAR 016F
ENCODING 367
SWIDTH 600 0
DWIDTH 10 0
BBX 8 14 1 0
BITMAP
18
24
24
18
00
C3
C3
C3
C3
C3
C3
E7
FF
7B
ENDCHAR
STARTCHAR 0170
ENCODING 368
SWIDTH 720 0
DWIDTH 12 0
BBX 10 15 1 0
BITMAP
06C0
0980
0000
C0C0
C0C0
C0C0
C0C0
C0C0
C0C0
C0C0
C0C0
C0C0
E1C0
7F80
3F00
ENDCHAR
STARTCHAR 0171
ENCODING 369
SWIDTH 600 0
DWIDTH 10 0
BBX 9 13 1 0
BITMAP
1980
3300
6600
0000
C300
C300
C300
C300
C300
C300
E700
FF00
7B00
ENDCHAR
STARTCHAR 0172
ENCODING 370
SWIDTH 720 0
DWIDTH 12 0
BBX 10 16 1 -4
BITMAP
C0C0
C0C0
C0C0
C0C0
C0C0
C0C0
C0C0
C0C0
C0C0
E1C0
7F80
3F00
0600
0C00
0C00
0E00
ENDCHAR
STARTCHAR 0173
ENCODING 371
SWIDTH 600 0
DWIDTH 10 0
BBX 8 13 1 -4
BITMAP
C3
C3
C3
C3
C3
C3
E7
FF
7B
03
06
06
07
ENDCHAR
STARTCHAR 0174
ENCODING 372
SWIDTH 1020 0
DWIDTH 17 0
BBX 16 15 1 0
BITMAP
00E0
0330
0000
C1C1
E1C3
E163
6363
6363
7367
3236
3636
3636
3E3E
1C1C
1C1C
ENDCHAR
STARTCHAR 0175
ENCODING 373
SWIDTH 780 0
DWIDTH 13 0
BBX 13 13 0 0
BITMAP
0180
03C0
0660
0000
6388
6388
7288
36D8
36D8
36D8
3458
1C70
1C70
ENDCHAR
STARTCHAR 0176
ENCODING 374
SWIDTH 600 0
DWIDTH 10 0
BBX 8 15 1 0
BITMAP
0E
33
00
61
73
33
37
1E
1E
0C
0C
0C
0C
0C
0C
ENDCHAR
STARTCHAR 0177
ENCODING 375
SWIDTH 540 0
DWIDTH 9 0
BBX 8 17 1 -4
BITMAP
0C
1E
33
00
C1
E3
63
63
37
36
36
1C
1C
1C
18
78
70
ENDCHAR
STARTCHAR 0178
ENCODING 376
SWIDTH 600 0
DWIDTH 10 0
BBX 8 15 1 0
BITMAP
1B
1B
00
61
73
33
37
1E
1E
0C
0C
0C
0C
0C
0C
ENDCHAR
STARTCHAR 0179
ENCODING 377
SWIDTH 540 0
DWIDTH 9 0
BBX 7 15 1 0
BITMAP
0E
18
00
FE
FE
0E
1C
1C
38
38
70
70
E0
FE
FE
ENDCHAR
STARTCHAR 017A
ENCODING 378
SWIDTH 540 0
DWIDTH 9 0
BBX 7 13 1 0
BITMAP
0C
18
30
00
FE
FE
04
08
10
20
40
FE
FE
ENDCHAR
STARTCHAR 017B
ENCODING 379
SWIDTH 540 0
DWIDTH 9 0
BBX 7 15 1 0
BITMAP
18
18
00
FE
FE
0E
1C
1C
38
38
70
70
E0
FE
FE
ENDCHAR
STARTCHAR 017C
ENCODING 380
SWIDTH 540 0
DWIDTH 9 0
BBX 7 12 1 0
BITMAP
18
18
00
FE
FE
04
08
10
20
40
FE
FE
ENDCHAR
STARTCHAR 017D
ENCODING 381
SWIDTH 540 0
DWIDTH 9 0
BBX 7 15 1 0
BITMAP
66
3C
00
FE
FE
0E
1C
1C
38
38
70
70
E0
FE
FE
ENDCHAR
STARTCHAR 017E
ENCODING 382
SWIDTH 540 0
DWIDTH 9 0
BBX 7 13 1 0
BITMAP
66
3C
18
00
FE
FE
04
08
10
20
40
FE
FE
ENDCHAR
STARTCHAR 017F
ENCODING 383
SWIDTH 240 0
DWIDTH 4 0
BBX 4 12 1 0
BITMAP
70
F0
C0
C0
C0
C0
C0
C0
C0
C0
C0
C0
ENDCHAR
STARTCHAR 0192
ENCODING 402
SWIDTH 540 0
DWIDTH 9 0
BBX 7 16 1 -4
BITMAP
0E
1E
18
30
7C
7C
30
30
70
60
60
60
60
E0
E0
C0
ENDCHAR
STARTCHAR 01FA
ENCODING 506
SWIDTH 660 0
DWIDTH 11 0
BBX 11 18 0 0
BITMAP
0380
0600
0000
0600
0900
0900
0E00
0E00
1B00
1B00
1B00
3180
3180
3F80
7FC0
60C0
60C0
C060
ENDCHAR
STARTCHAR 01FB
ENCODING 507
SWIDTH 540 0
DWIDTH 9 0
BBX 8 17 1 0
BITMAP
06
0C
18
18
24
24
18
00
7C
FE
06
7E
FE
C6
CE
FF
73
ENDCHAR
STARTCHAR 01FC
ENCODING 508
SWIDTH 1020 0
DWIDTH 17 0
BBX 16 15 0 0
BITMAP
0038
0060
0000
03FF
03FF
06C0
06C0
0CC0
0CFE
18FE
1FC0
3FC0
60C0
60FF
C0FF
ENDCHAR
STARTCHAR 01FD
ENCODING 509
SWIDTH 900 0
DWIDTH 15 0
BBX 13 13 1 0
BITMAP
00C0
0180
0300
0000
7DE0
FFF0
0618
7FF8
FFF8
C600
CF18
FBF0
71E0
ENDCHAR
STARTCHAR 01FE
ENCODING 510
SWIDTH 780 0
DWIDTH 13 0
BBX 11 15 1 -1
BITMAP
0700
0C00
0000
1FC0
3F80
71C0
E3E0
C260
C660
CC60
C860
F0E0
71C0
3F80
7F00
ENDCHAR
STARTCHAR 01FF
ENCODING 511
SWIDTH 600 0
DWIDTH 10 0
BBX 8 13 1 -1
BITMAP
03
06
0C
00
1E
3F
73
67
6D
79
73
3F
5E
ENDCHAR
STARTCHAR 02C6
ENCODING 710
SWIDTH 360 0
DWIDTH 6 0
BBX 6 3 0 10
BITMAP
30
78
CC
ENDCHAR
STARTCHAR 02C7
ENCODING 711
SWIDTH 360 0
DWIDTH 6 0
BBX 6 3 0 10
BITMAP
CC
78
30
ENDCHAR
STARTCHAR 02C9
ENCODING 713
SWIDTH 360 0
DWIDTH 6 0
BBX 6 1 0 10
BITMAP
FC
ENDCHAR
STARTCHAR 02D8
ENCODING 728
SWIDTH 300 0
DWIDTH 5 0
BBX 5 3 0 10
BITMAP
88
D8
70
ENDCHAR
STARTCHAR 02D9
ENCODING 729
SWIDTH 360 0
DWIDTH 6 0
BBX 2 2 2 10
BITMAP
C0
C0
ENDCHAR
STARTCHAR 02DA
ENCODING 730
SWIDTH 360 0
DWIDTH 6 0
BBX 4 4 1 9
BITMAP
60
90
90
60
ENDCHAR
STARTCHAR 02DB
ENCODING 731
SWIDTH 360 0
DWIDTH 6 0
BBX 3 4 1 -4
BITMAP
60
C0
C0
E0
ENDCHAR
STARTCHAR 02DC
ENCODING 732
SWIDTH 360 0
DWIDTH 6 0
BBX 6 2 0 10
BITMAP
E4
9C
ENDCHAR
STARTCHAR 02DD
ENCODING 733
SWIDTH 360 0
DWIDTH 6 0
BBX 8 3 -1 10
BITMAP
33
66
CC
ENDCHAR
STARTCHAR 037E
ENCODING 894
SWIDTH 360 0
DWIDTH 6 0
BBX 2 12 2 -3
BITMAP
C0
C0
00
00
00
00
00
C0
C0
40
40
C0
ENDCHAR
STARTCHAR 0384
ENCODING 900
SWIDTH 360 0
DWIDTH 6 0
BBX 3 3 2 10
BITMAP
60
C0
80
ENDCHAR
STARTCHAR 0385
ENCODING 901
SWIDTH 480 0
DWIDTH 8 0
BBX 7 3 0 10
BITMAP
18
DE
D6
ENDCHAR
STARTCHAR 0386
ENCODING 902
SWIDTH 660 0
DWIDTH 11 0
BBX 11 12 0 0
BITMAP
6E00
CE00
9B00
1B00
1B00
3180
3180
3F80
7FC0
60C0
60C0
C060
ENDCHAR
STARTCHAR 0387
ENCODING 903
SWIDTH 360 0
DWIDTH 6 0
BBX 2 2 2 4
BITMAP
C0
C0
ENDCHAR
STARTCHAR 0388
ENCODING 904
SWIDTH 900 0
DWIDTH 15 0
BBX 13 12 1 0
BITMAP
6FF8
CFF8
8C00
0C00
0C00
0FF0
0FF0
0C00
0C00
0C00
0FF8
0FF8
ENDCHAR
STARTCHAR 0389
ENCODING 905
SWIDTH 900 0
DWIDTH 15 0
BBX 14 12 0 0
BITMAP
6C0C
CC0C
8C0C
0C0C
0C0C
0FFC
0FFC
0C0C
0C0C
0C0C
0C0C
0C0C
ENDCHAR
STARTCHAR 038A
ENCODING 906
SWIDTH 480 0
DWIDTH 8 0
BBX 6 12 -1 0
BITMAP
3C
6C
CC
0C
0C
0C
0C
0C
0C
0C
0C
0C
ENDCHAR
STARTCHAR 038C
ENCODING 908
SWIDTH 840 0
DWIDTH 14 0
BBX 13 12 0 0
BITMAP
67C0
CFE0
9C70
3838
3018
3018
3018
3018
3838
1C70
0FE0
07C0
ENDCHAR
STARTCHAR 038E
ENCODING 910
SWIDTH 960 0
DWIDTH 16 0
BBX 12 12 1 0
BITMAP
6C30
CE70
8660
06E0
03C0
03C0
0180
0180
0180
0180
0180
0180
ENDCHAR
STARTCHAR 038F
ENCODING 911
SWIDTH 840 0
DWIDTH 14 0
BBX 14 12 -1 0
BITMAP
67E0
DFF8
9C38
300C
300C
300C
300C
381C
1C38
0E70
3E7C
3E7C
ENDCHAR
STARTCHAR 0390
ENCODING 912
SWIDTH 240 0
DWIDTH 4 0
BBX 7 13 -1 0
BITMAP
18
DE
D6
00
30
30
30
30
30
30
30
30
30
ENDCHAR
STARTCHAR 0391
ENCODING 913
SWIDTH 660 0
DWIDTH 11 0
BBX 11 12 0 0
BITMAP
0E00
0E00
1B00
1B00
1B00
3180
3180
3F80
7FC0
60C0
60C0
C060
ENDCHAR
STARTCHAR 0392
ENCODING 914
SWIDTH 720 0
DWIDTH 12 0
BBX 10 12 1 0
BITMAP
FF00
FF80
C180
C180
C180
FF00
FF80
C0C0
C0C0
C0C0
FF80
FF00
ENDCHAR
STARTCHAR 0393
ENCODING 915
SWIDTH 600 0
DWIDTH 10 0
BBX 9 12 1 0
BITMAP
FF80
FF80
C000
C000
C000
C000
C000
C000
C000
C000
C000
C000
ENDCHAR
STARTCHAR 0394
ENCODING 916
SWIDTH 720 0
DWIDTH 12 0
BBX 10 12 1 0
BITMAP
0600
0F00
0F00
0F00
1980
1980
30C0
30C0
30C0
6040
7FC0
7FC0
ENDCHAR
STARTCHAR 0395
ENCODING 917
SWIDTH 660 0
DWIDTH 11 0
BBX 9 12 1 0
BITMAP
FF80
FF80
C000
C000
C000
FF00
FF00
C000
C000
C000
FF80
FF80
ENDCHAR
STARTCHAR 0396
ENCODING 918
SWIDTH 540 0
DWIDTH 9 0
BBX 7 12 1 0
BITMAP
FE
FE
0E
1C
1C
38
38
70
70
E0
FE
FE
ENDCHAR
STARTCHAR 0397
ENCODING 919
SWIDTH 720 0
DWIDTH 12 0
BBX 10 12 1 0
BITMAP
C0C0
C0C0
C0C0
C0C0
C0C0
FFC0
FFC0
C0C0
C0C0
C0C0
C0C0
C0C0
ENDCHAR
STARTCHAR 0398
ENCODING 920
SWIDTH 780 0
DWIDTH 13 0
BBX 11 12 1 0
BITMAP
1F00
3F80
71C0
E0E0
C060
DF60
DF60
C060
E0E0
71C0
3F80
1F00
ENDCHAR
STARTCHAR 0399
ENCODING 921
SWIDTH 240 0
DWIDTH 4 0
BBX 2 12 1 0
BITMAP
C0
C0
C0
C0
C0
C0
C0
C0
C0
C0
C0
C0
ENDCHAR
STARTCHAR 039A
ENCODING 922
SWIDTH 720 0
DWIDTH 12 0
BBX 11 12 1 0
BITMAP
C0E0
C1C0
C700
CE00
DC00
FC00
FE00
C600
C300
C180
C0C0
C0E0
ENDCHAR
STARTCHAR 039B
ENCODING 923
SWIDTH 660 0
DWIDTH 11 0
BBX 11 12 0 0
BITMAP
0200
0700
0500
0D80
0D80
08C0
18C0
18C0
3060
3060
6020
6020
ENDCHAR
STARTCHAR 039C
ENCODING 924
SWIDTH 780 0
DWIDTH 13 0
BBX 11 12 1 0
BITMAP
E0E0
F0E0
F1E0
F1E0
D160
DB60
DB60
DB60
CA60
CE60
CE60
CE60
ENDCHAR
STARTCHAR 039D
ENCODING 925
SWIDTH 720 0
DWIDTH 12 0
BBX 10 12 1 0
BITMAP
E0C0
E0C0
F0C0
F8C0
D8C0
DCC0
CEC0
C6C0
C7C0
C3C0
C1C0
C1C0
ENDCHAR
STARTCHAR 039E
ENCODING 926
SWIDTH 660 0
DWIDTH 11 0
BBX 9 12 1 0
BITMAP
FF80
FF80
0000
0000
0000
7F00
7F00
0000
0000
0000
FF80
FF80
ENDCHAR
STARTCHAR 039F
ENCODING 927
SWIDTH 780 0
DWIDTH 13 0
BBX 11 12 1 0
BITMAP
1F00
3F80
71C0
E0E0
C060
C060
C060
C060
E0E0
71C0
3F80
1F00
ENDCHAR
STARTCHAR 03A0
ENCODING 928
SWIDTH 720 0
DWIDTH 12 0
BBX 10 12 1 0
BITMAP
FFC0
FFC0
C0C0
C0C0
C0C0
C0C0
C0C0
C0C0
C0C0
C0C0
C0C0
C0C0
ENDCHAR
STARTCHAR 03A1
ENCODING 929
SWIDTH 660 0
DWIDTH 11 0
BBX 9 12 1 0
BITMAP
FE00
FF00
C180
C180
C180
FF00
FE00
C000
C000
C000
C000
C000
ENDCHAR
STARTCHAR 03A3
ENCODING 931
SWIDTH 600 0
DWIDTH 10 0
BBX 8 12 1 0
BITMAP
FF
FF
E0
70
38
18
38
30
60
C0
FF
FF
ENDCHAR
STARTCHAR 03A4
ENCODING 932
SWIDTH 600 0
DWIDTH 10 0
BBX 8 12 1 0
BITMAP
FF
FF
18
18
18
18
18
18
18
18
18
18
ENDCHAR
STARTCHAR 03A5
ENCODING 933
SWIDTH 600 0
DWIDTH 10 0
BBX 8 12 1 0
BITMAP
61
73
33
37
1E
1E
0C
0C
0C
0C
0C
0C
ENDCHAR
STARTCHAR 03A6
ENCODING 934
SWIDTH 840 0
DWIDTH 14 0
BBX 12 12 1 0
BITMAP
0600
3FC0
7FE0
E670
C630
C630
C630
E670
7FE0
3FC0
0600
0600
ENDCHAR
STARTCHAR 03A7
ENCODING 935
SWIDTH 660 0
DWIDTH 11 0
BBX 11 12 0 0
BITMAP
7060
3060
18C0
1DC0
0F80
0700
0F80
0D80
1DC0
38E0
3060
7060
ENDCHAR
STARTCHAR 03A8
ENCODING 936
SWIDTH 840 0
DWIDTH 14 0
BBX 12 12 1 0
BITMAP
C630
C630
C630
C630
C630
E670
7FE0
3FC0
0600
0600
0600
0600
ENDCHAR
STARTCHAR 03A9
ENCODING 937
SWIDTH 840 0
DWIDTH 14 0
BBX 12 12 1 0
BITMAP
1F80
7FE0
70E0
C030
C030
C030
C030
E070
70E0
39C0
F9F0
F9F0
ENDCHAR
STARTCHAR 03AA
ENCODING 938
SWIDTH 240 0
DWIDTH 4 0
BBX 5 15 0 0
BITMAP
D8
D8
00
60
60
60
60
60
60
60
60
60
60
60
60
ENDCHAR
STARTCHAR 03AB
ENCODING 939
SWIDTH 600 0
DWIDTH 10 0
BBX 8 15 1 0
BITMAP
1B
1B
00
61
73
33
37
1E
1E
0C
0C
0C
0C
0C
0C
ENDCHAR
STARTCHAR 03AC
ENCODING 940
SWIDTH 600 0
DWIDTH 10 0
BBX 9 13 1 0
BITMAP
0C00
1800
1000
0000
3D80
7D80
E700
C300
C300
C300
C700
7F00
3B80
ENDCHAR
STARTCHAR 03AD
ENCODING 941
SWIDTH 480 0
DWIDTH 8 0
BBX 7 13 1 0
BITMAP
0C
18
10
00
7C
FC
C0
38
C0
C0
C4
FE
7C
ENDCHAR
STARTCHAR 03AE
ENCODING 942
SWIDTH 600 0
DWIDTH 10 0
BBX 8 17 1 -4
BITMAP
03
06
04
00
6F
7F
71
61
61
61
61
61
61
01
01
01
01
ENDCHAR
STARTCHAR 03AF
ENCODING 943
SWIDTH 240 0
DWIDTH 4 0
BBX 3 13 1 0
BITMAP
60
C0
80
00
C0
C0
C0
C0
C0
C0
C0
C0
C0
ENDCHAR
STARTCHAR 03B0
ENCODING 944
SWIDTH 600 0
DWIDTH 10 0
BBX 8 13 1 0
BITMAP
0C
6F
6B
00
C6
C3
C3
C3
C3
C3
C7
FE
7C
ENDCHAR
STARTCHAR 03B1
ENCODING 945
SWIDTH 600 0
DWIDTH 10 0
BBX 9 9 1 0
BITMAP
3D80
7D80
E700
C300
C300
C300
C700
7F00
3B80
ENDCHAR
STARTCHAR 03B2
ENCODING 946
SWIDTH 600 0
DWIDTH 10 0
BBX 8 16 1 -4
BITMAP
7C
FE
C6
C6
CE
DC
DE
C7
C3
C3
FF
FE
C0
C0
C0
C0
ENDCHAR
STARTCHAR 03B3
ENCODING 947
SWIDTH 480 0
DWIDTH 8 0
BBX 8 13 0 -4
BITMAP
61
73
33
33
33
1E
1E
1E
0C
0C
1C
1C
18
ENDCHAR
STARTCHAR 03B4
ENCODING 948
SWIDTH 600 0
DWIDTH 10 0
BBX 8 12 1 0
BITMAP
7F
7F
10
3C
7E
E6
C3
C3
C3
E7
7E
3C
ENDCHAR
STARTCHAR 03B5
ENCODING 949
SWIDTH 480 0
DWIDTH 8 0
BBX 7 9 1 0
BITMAP
7C
FC
C0
38
C0
C0
C4
FE
7C
ENDCHAR
STARTCHAR 03B6
ENCODING 950
SWIDTH 480 0
DWIDTH 8 0
BBX 7 15 1 -3
BITMAP
FE
FE
0C
18
30
20
60
C0
C0
C0
F8
7E
06
06
06
ENDCHAR
STARTCHAR 03B7
ENCODING 951
SWIDTH 600 0
DWIDTH 10 0
BBX 8 13 1 -4
BITMAP
6F
7F
71
61
61
61
61
61
61
01
01
01
01
ENDCHAR
STARTCHAR 03B8
ENCODING 952
SWIDTH 540 0
DWIDTH 9 0
BBX 7 12 1 0
BITMAP
38
7C
EE
C6
C6
FE
FE
C6
C6
EE
7C
38
ENDCHAR
STARTCHAR 03B9
ENCODING 953
SWIDTH 240 0
DWIDTH 4 0
BBX 2 9 1 0
BITMAP
C0
C0
C0
C0
C0
C0
C0
C0
C0
ENDCHAR
STARTCHAR 03BA
ENCODING 954
SWIDTH 540 0
DWIDTH 9 0
BBX 8 9 1 0
BITMAP
C7
CE
DC
D8
F8
FC
CE
C6
C7
ENDCHAR
STARTCHAR 03BB
ENCODING 955
SWIDTH 480 0
DWIDTH 8 0
BBX 8 13 0 0
BITMAP
38
3C
0C
0C
0E
0E
1E
1B
1B
33
33
73
61
ENDCHAR
STARTCHAR 03BC
ENCODING 956
SWIDTH 600 0
DWIDTH 10 0
BBX 8 13 1 -4
BITMAP
C3
C3
C3
C3
C3
C3
C7
FF
FB
C0
C0
C0
C0
ENDCHAR
STARTCHAR 03BD
ENCODING 957
SWIDTH 540 0
DWIDTH 9 0
BBX 8 9 0 0
BITMAP
61
71
31
31
31
1B
1B
1E
0C
ENDCHAR
STARTCHAR 03BE
ENCODING 958
SWIDTH 480 0
DWIDTH 8 0
BBX 7 15 1 -3
BITMAP
FE
FE
30
60
70
3C
3C
60
C0
C0
F8
7E
06
06
06
ENDCHAR
STARTCHAR 03BF
ENCODING 959
SWIDTH 600 0
DWIDTH 10 0
BBX 8 9 1 0
BITMAP
3C
7E
E7
C3
C3
C3
E7
7E
3C
ENDCHAR
STARTCHAR 03C0
ENCODING 960
SWIDTH 780 0
DWIDTH 13 0
BBX 11 9 1 0
BITMAP
FFE0
FFE0
3180
3180
3180
3180
3180
61E0
60E0
ENDCHAR
STARTCHAR 03C1
ENCODING 961
SWIDTH 660 0
DWIDTH 11 0
BBX 9 13 1 -4
BITMAP
3E00
7F00
E380
C180
C180
C180
E380
FF00
DE00
C000
C000
C000
C000
ENDCHAR
STARTCHAR 03C2
ENCODING 962
SWIDTH 540 0
DWIDTH 9 0
BBX 7 12 1 -3
BITMAP
3C
7C
60
C0
C0
C0
E0
78
3E
06
06
06
ENDCHAR
STARTCHAR 03C3
ENCODING 963
SWIDTH 720 0
DWIDTH 12 0
BBX 10 9 2 0
BITMAP
3FC0
7FC0
E600
C300
C300
C300
E700
7E00
3C00
ENDCHAR
STARTCHAR 03C4
ENCODING 964
SWIDTH 480 0
DWIDTH 8 0
BBX 6 9 1 0
BITMAP
FC
FC
30
30
30
30
30
38
38
ENDCHAR
STARTCHAR 03C5
ENCODING 965
SWIDTH 600 0
DWIDTH 10 0
BBX 8 9 1 0
BITMAP
C6
C3
C3
C3
C3
C3
C7
FE
7C
ENDCHAR
STARTCHAR 03C6
ENCODING 966
SWIDTH 720 0
DWIDTH 12 0
BBX 10 13 1 -4
BITMAP
2700
7F80
ECC0
CCC0
CCC0
CCC0
EDC0
7F80
3F00
0C00
0C00
0C00
0C00
ENDCHAR
STARTCHAR 03C7
ENCODING 967
SWIDTH 600 0
DWIDTH 10 0
BBX 10 13 0 -4
BITMAP
70C0
78C0
1D80
0F80
0F00
0600
0F00
0F00
1D80
1980
38C0
30C0
6040
ENDCHAR
STARTCHAR 03C8
ENCODING 968
SWIDTH 720 0
DWIDTH 12 0
BBX 10 15 1 -4
BITMAP
0C00
0C00
CCC0
CCC0
CCC0
CCC0
CCC0
CCC0
CCC0
7FC0
3F00
0C00
0C00
0C00
0C00
ENDCHAR
STARTCHAR 03C9
ENCODING 969
SWIDTH 840 0
DWIDTH 14 0
BBX 12 9 1 0
BITMAP
30C0
70E0
E070
C630
C630
C630
C630
7FE0
39C0
ENDCHAR
STARTCHAR 03CA
ENCODING 970
SWIDTH 240 0
DWIDTH 4 0
BBX 5 12 0 0
BITMAP
D8
D8
00
60
60
60
60
60
60
60
60
60
ENDCHAR
STARTCHAR 03CB
ENCODING 971
SWIDTH 600 0
DWIDTH 10 0
BBX 8 12 1 0
BITMAP
76
66
00
C6
C3
C3
C3
C3
C3
C7
FE
7C
ENDCHAR
STARTCHAR 03CC
ENCODING 972
SWIDTH 600 0
DWIDTH 10 0
BBX 8 13 1 0
BITMAP
0C
18
10
00
3C
7E
E7
C3
C3
C3
E7
7E
3C
ENDCHAR
STARTCHAR 03CD
ENCODING 973
SWIDTH 600 0
DWIDTH 10 0
BBX 8 13 1 0
BITMAP
0C
18
10
00
C6
C3
C3
C3
C3
C3
C7
FE
7C
ENDCHAR
STARTCHAR 03CE
ENCODING 974
SWIDTH 840 0
DWIDTH 14 0
BBX 12 13 1 0
BITMAP
0300
0600
0400
0000
30C0
70E0
E070
C630
C630
C630
C630
7FE0
39C0
ENDCHAR
STARTCHAR 0401
ENCODING 1025
SWIDTH 660 0
DWIDTH 11 0
BBX 9 15 1 0
BITMAP
3300
3300
0000
FF80
FF80
C000
C000
C000
FF00
FF00
C000
C000
C000
FF80
FF80
ENDCHAR
STARTCHAR 0402
ENCODING 1026
SWIDTH 900 0
DWIDTH 15 0
BBX 14 12 0 0
BITMAP
FFC0
FFC0
0C00
0C00
0DF8
0FFC
0C0C
0C0C
0C0C
0C8C
0DFC
0CF8
ENDCHAR
STARTCHAR 0403
ENCODING 1027
SWIDTH 600 0
DWIDTH 10 0
BBX 8 15 2 0
BITMAP
1C
30
00
FF
FF
C0
C0
C0
C0
C0
C0
C0
C0
C0
C0
ENDCHAR
STARTCHAR 0404
ENCODING 1028
SWIDTH 720 0
DWIDTH 12 0
BBX 10 12 1 0
BITMAP
1F00
7F80
61C0
C0C0
C000
FC00
FC00
C000
C080
61C0
7F80
1F00
ENDCHAR
STARTCHAR 0405
ENCODING 1029
SWIDTH 660 0
DWIDTH 11 0
BBX 10 12 0 0
BITMAP
1F00
3FC0
60C0
6000
7000
3F00
0F80
01C0
C0C0
E0C0
7F80
3F00
ENDCHAR
STARTCHAR 0406
ENCODING 1030
SWIDTH 240 0
DWIDTH 4 0
BBX 2 12 1 0
BITMAP
C0
C0
C0
C0
C0
C0
C0
C0
C0
C0
C0
C0
ENDCHAR
STARTCHAR 0407
ENCODING 1031
SWIDTH 240 0
DWIDTH 4 0
BBX 5 15 0 0
BITMAP
D8
D8
00
60
60
60
60
60
60
60
60
60
60
60
60
ENDCHAR
STARTCHAR 0408
ENCODING 1032
SWIDTH 540 0
DWIDTH 9 0
BBX 8 12 0 0
BITMAP
0F
0F
03
03
03
03
03
03
C3
E3
7E
3C
ENDCHAR
STARTCHAR 0409
ENCODING 1033
SWIDTH 1140 0
DWIDTH 19 0
BBX 18 12 0 0
BITMAP
1FC000
1FC000
18C000
38C000
30C000
30FF00
30FF80
30C1C0
30C0C0
70C0C0
E0FF80
C0FF00
ENDCHAR
STARTCHAR 040A
ENCODING 1034
SWIDTH 1080 0
DWIDTH 18 0
BBX 16 12 1 0
BITMAP
C180
C180
C180
C180
C180
FFFC
FFFE
C183
C183
C183
C1FE
C1FC
ENDCHAR
STARTCHAR 040B
ENCODING 1035
SWIDTH 900 0
DWIDTH 15 0
BBX 14 12 0 0
BITMAP
FFC0
FFC0
0C00
0C00
0DF0
0FF8
0C1C
0C0C
0C0C
0C0C
0C0C
0C0C
ENDCHAR
STARTCHAR 040C
ENCODING 1036
SWIDTH 600 0
DWIDTH 10 0
BBX 9 15 1 0
BITMAP
0E00
1800
0000
C380
C300
C600
CE00
DC00
F800
FC00
CC00
CE00
C700
C300
C380
ENDCHAR
STARTCHAR 040E
ENCODING 1038
SWIDTH 660 0
DWIDTH 11 0
BBX 11 16 0 0
BITMAP
0CC0
0CC0
0780
0000
7020
3060
3860
18C0
0CC0
0F80
0780
0700
0300
0600
3E00
3C00
ENDCHAR
STARTCHAR 040F
ENCODING 1039
SWIDTH 720 0
DWIDTH 12 0
BBX 10 15 1 -3
BITMAP
C0C0
C0C0
C0C0
C0C0
C0C0
C0C0
C0C0
C0C0
C0C0
C0C0
FFC0
FFC0
0C00
0C00
0C00
ENDCHAR
STARTCHAR 0410
ENCODING 1040
SWIDTH 660 0
DWIDTH 11 0
BBX 11 12 0 0
BITMAP
0E00
0E00
1B00
1B00
1B00
3180
3180
3F80
7FC0
60C0
60C0
C060
ENDCHAR
STARTCHAR 0411
ENCODING 1041
SWIDTH 720 0
DWIDTH 12 0
BBX 10 12 1 0
BITMAP
FF80
FF80
C000
C000
C000
FF00
FF80
C0C0
C0C0
C0C0
FF80
FF00
ENDCHAR
STARTCHAR 0412
ENCODING 1042
SWIDTH 720 0
DWIDTH 12 0
BBX 10 12 1 0
BITMAP
FF00
FF80
C180
C180
C180
FF00
FF80
C0C0
C0C0
C0C0
FF80
FF00
ENDCHAR
STARTCHAR 0413
ENCODING 1043
SWIDTH 600 0
DWIDTH 10 0
BBX 8 12 1 0
BITMAP
FF
FF
C0
C0
C0
C0
C0
C0
C0
C0
C0
C0
ENDCHAR
STARTCHAR 0414
ENCODING 1044
SWIDTH 720 0
DWIDTH 12 0
BBX 12 15 0 -3
BITMAP
0FC0
0FC0
0CC0
1CC0
18C0
18C0
18C0
30C0
30C0
60C0
FFF0
FFF0
C030
C030
C030
ENDCHAR
STARTCHAR 0415
ENCODING 1045
SWIDTH 660 0
DWIDTH 11 0
BBX 9 12 1 0
BITMAP
FF80
FF80
C000
C000
C000
FF00
FF00
C000
C000
C000
FF80
FF80
ENDCHAR
STARTCHAR 0416
ENCODING 1046
SWIDTH 840 0
DWIDTH 14 0
BBX 14 12 0 0
BITMAP
718C
318C
399C
1998
0DB0
0FF0
0FF0
19B8
1998
399C
318C
718C
ENDCHAR
STARTCHAR 0417
ENCODING 1047
SWIDTH 660 0
DWIDTH 11 0
BBX 9 12 1 0
BITMAP
3E00
7F80
E180
C180
0180
0F00
0F00
0180
4180
E180
7F00
3E00
ENDCHAR
STARTCHAR 0418
ENCODING 1048
SWIDTH 720 0
DWIDTH 12 0
BBX 10 12 1 0
BITMAP
C1C0
C1C0
C3C0
C7C0
C6C0
CEC0
DCC0
D8C0
F8C0
F0C0
F0C0
E0C0
ENDCHAR
STARTCHAR 0419
ENCODING 1049
SWIDTH 720 0
DWIDTH 12 0
BBX 10 16 1 0
BITMAP
3300
3300
1E00
0000
C1C0
C1C0
C3C0
C7C0
C6C0
CEC0
DCC0
D8C0
F8C0
F0C0
F0C0
E0C0
ENDCHAR
STARTCHAR 041A
ENCODING 1050
SWIDTH 600 0
DWIDTH 10 0
BBX 9 12 1 0
BITMAP
C380
C300
C600
CE00
DC00
F800
FC00
CC00
CE00
C700
C300
C380
ENDCHAR
STARTCHAR 041B
ENCODING 1051
SWIDTH 720 0
DWIDTH 12 0
BBX 11 12 0 0
BITMAP
1FE0
1FE0
1860
3860
3060
3060
3060
3060
3060
7060
E060
C060
ENDCHAR
STARTCHAR 041C
ENCODING 1052
SWIDTH 780 0
DWIDTH 13 0
BBX 11 12 1 0
BITMAP
E0E0
F0E0
F1E0
F1E0
D160
DB60
DB60
DB60
CA60
CE60
CE60
CE60
ENDCHAR
STARTCHAR 041D
ENCODING 1053
SWIDTH 720 0
DWIDTH 12 0
BBX 10 12 1 0
BITMAP
C0C0
C0C0
C0C0
C0C0
C0C0
FFC0
FFC0
C0C0
C0C0
C0C0
C0C0
C0C0
ENDCHAR
STARTCHAR 041E
ENCODING 1054
SWIDTH 780 0
DWIDTH 13 0
BBX 11 12 1 0
BITMAP
1F00
3F80
71C0
E0E0
C060
C060
C060
C060
E0E0
71C0
3F80
1F00
ENDCHAR
STARTCHAR 041F
ENCODING 1055
SWIDTH 720 0
DWIDTH 12 0
BBX 10 12 1 0
BITMAP
FFC0
FFC0
C0C0
C0C0
C0C0
C0C0
C0C0
C0C0
C0C0
C0C0
C0C0
C0C0
ENDCHAR
STARTCHAR 0420
ENCODING 1056
SWIDTH 660 0
DWIDTH 11 0
BBX 9 12 1 0
BITMAP
FE00
FF00
C180
C180
C180
FF00
FE00
C000
C000
C000
C000
C000
ENDCHAR
STARTCHAR 0421
ENCODING 1057
SWIDTH 720 0
DWIDTH 12 0
BBX 10 12 1 0
BITMAP
1F00
7F80
61C0
C0C0
C000
C000
C000
C000
E080
61C0
7F80
1F00
ENDCHAR
STARTCHAR 0422
ENCODING 1058
SWIDTH 600 0
DWIDTH 10 0
BBX 8 12 1 0
BITMAP
FF
FF
18
18
18
18
18
18
18
18
18
18
ENDCHAR
STARTCHAR 0423
ENCODING 1059
SWIDTH 660 0
DWIDTH 11 0
BBX 11 12 0 0
BITMAP
7020
3060
3860
18C0
0CC0
0F80
0780
0700
0300
0600
3E00
3C00
ENDCHAR
STARTCHAR 0424
ENCODING 1060
SWIDTH 840 0
DWIDTH 14 0
BBX 12 12 1 0
BITMAP
0600
0600
3FC0
7FE0
E670
C630
C630
E670
7FE0
3FC0
0600
0600
ENDCHAR
STARTCHAR 0425
ENCODING 1061
SWIDTH 660 0
DWIDTH 11 0
BBX 11 12 0 0
BITMAP
7060
3060
18C0
1DC0
0F80
0700
0F80
0D80
1DC0
38E0
3060
7060
ENDCHAR
STARTCHAR 0426
ENCODING 1062
SWIDTH 720 0
DWIDTH 12 0
BBX 11 15 1 -3
BITMAP
C0C0
C0C0
C0C0
C0C0
C0C0
C0C0
C0C0
C0C0
C0C0
C0C0
FFE0
FFE0
0060
0060
0060
ENDCHAR
STARTCHAR 0427
ENCODING 1063
SWIDTH 720 0
DWIDTH 12 0
BBX 10 12 1 0
BITMAP
C0C0
C0C0
C0C0
C0C0
C0C0
E0C0
7FC0
3EC0
00C0
00C0
00C0
00C0
ENDCHAR
STARTCHAR 0428
ENCODING 1064
SWIDTH 960 0
DWIDTH 16 0
BBX 14 12 1 0
BITMAP
C30C
C30C
C30C
C30C
C30C
C30C
C30C
C30C
C30C
C30C
FFFC
FFFC
ENDCHAR
STARTCHAR 0429
ENCODING 1065
SWIDTH 960 0
DWIDTH 16 0
BBX 15 15 1 -3
BITMAP
C30C
C30C
C30C
C30C
C30C
C30C
C30C
C30C
C30C
C30C
FFFE
FFFE
0006
0006
0006
ENDCHAR
STARTCHAR 042A
ENCODING 1066
SWIDTH 900 0
DWIDTH 15 0
BBX 14 12 0 0
BITMAP
FC00
FC00
0C00
0C00
0C00
0FF0
0FF8
0C0C
0C0C
0C0C
0FF8
0FF0
ENDCHAR
STARTCHAR 042B
ENCODING 1067
SWIDTH 1020 0
DWIDTH 17 0
BBX 15 12 1 0
BITMAP
C006
C006
C006
C006
C006
FF86
FFC6
C0E6
C066
C0E6
FFC6
FF86
ENDCHAR
STARTCHAR 042C
ENCODING 1068
SWIDTH 720 0
DWIDTH 12 0
BBX 10 12 1 0
BITMAP
C000
C000
C000
C000
C000
FF00
FF80
C0C0
C0C0
C0C0
FF80
FF00
ENDCHAR
STARTCHAR 042D
ENCODING 1069
SWIDTH 720 0
DWIDTH 12 0
BBX 10 12 1 0
BITMAP
3E00
7F80
E180
C0C0
00C0
0FC0
0FC0
00C0
40C0
E180
7F80
3E00
ENDCHAR
STARTCHAR 042E
ENCODING 1070
SWIDTH 1080 0
DWIDTH 18 0
BBX 16 12 1 0
BITMAP
C0F8
C1FC
C38E
C707
C603
FE03
FE03
C603
C707
C38E
C3FC
C0F8
ENDCHAR
STARTCHAR 042F
ENCODING 1071
SWIDTH 720 0
DWIDTH 12 0
BBX 11 12 0 0
BITMAP
0FE0
1FE0
3020
3020
3020
1FE0
07E0
0E20
1C20
1820
3820
7020
ENDCHAR
STARTCHAR 0430
ENCODING 1072
SWIDTH 540 0
DWIDTH 9 0
BBX 8 9 1 0
BITMAP
7C
FE
06
7E
FE
C6
CE
FF
73
ENDCHAR
STARTCHAR 0431
ENCODING 1073
SWIDTH 660 0
DWIDTH 11 0
BBX 9 12 1 0
BITMAP
0780
3F80
7800
4000
9E00
BF00
E380
C180
C180
E380
7F00
3E00
ENDCHAR
STARTCHAR 0432
ENCODING 1074
SWIDTH 600 0
DWIDTH 10 0
BBX 8 9 1 0
BITMAP
FE
FF
C3
FE
FE
C3
C3
FF
FE
ENDCHAR
STARTCHAR 0433
ENCODING 1075
SWIDTH 420 0
DWIDTH 7 0
BBX 6 9 1 0
BITMAP
FC
FC
C0
C0
C0
C0
C0
C0
C0
ENDCHAR
STARTCHAR 0434
ENCODING 1076
SWIDTH 660 0
DWIDTH 11 0
BBX 10 12 0 -3
BITMAP
1F80
1F80
1980
3180
3180
3180
6180
FFC0
FFC0
C0C0
C0C0
C0C0
ENDCHAR
STARTCHAR 0435
ENCODING 1077
SWIDTH 540 0
DWIDTH 9 0
BBX 7 9 1 0
BITMAP
38
7C
C6
FE
FE
C0
C6
7C
38
ENDCHAR
STARTCHAR 0436
ENCODING 1078
SWIDTH 720 0
DWIDTH 12 0
BBX 12 9 0 0
BITMAP
6310
3330
3330
1B60
1FE0
1B60
3330
3330
6310
ENDCHAR
STARTCHAR 0437
ENCODING 1079
SWIDTH 480 0
DWIDTH 8 0
BBX 7 9 0 0
BITMAP
7C
FE
C6
1C
1C
06
C6
FE
7C
ENDCHAR
STARTCHAR 0438
ENCODING 1080
SWIDTH 600 0
DWIDTH 10 0
BBX 8 9 1 0
BITMAP
C7
C7
CF
CF
DB
F3
F3
E3
E3
ENDCHAR
STARTCHAR 0439
ENCODING 1081
SWIDTH 600 0
DWIDTH 10 0
BBX 8 13 1 0
BITMAP
66
66
3C
00
C7
C7
CF
CF
DB
F3
F3
E3
E3
ENDCHAR
STARTCHAR 043A
ENCODING 1082
SWIDTH 540 0
DWIDTH 9 0
BBX 8 9 1 0
BITMAP
C3
C6
CC
DC
F8
DC
CE
C6
C7
ENDCHAR
STARTCHAR 043B
ENCODING 1083
SWIDTH 660 0
DWIDTH 11 0
BBX 10 9 0 0
BITMAP
1FC0
1FC0
10C0
30C0
30C0
30C0
30C0
E0C0
E0C0
ENDCHAR
STARTCHAR 043C
ENCODING 1084
SWIDTH 780 0
DWIDTH 13 0
BBX 11 9 1 0
BITMAP
E0E0
F1E0
F1E0
D160
DB60
DB60
CA60
CE60
CE60
ENDCHAR
STARTCHAR 043D
ENCODING 1085
SWIDTH 600 0
DWIDTH 10 0
BBX 8 9 1 0
BITMAP
C3
C3
C3
FF
FF
C3
C3
C3
C3
ENDCHAR
STARTCHAR 043E
ENCODING 1086
SWIDTH 600 0
DWIDTH 10 0
BBX 8 9 1 0
BITMAP
3C
7E
E7
C3
C3
C3
E7
7E
3C
ENDCHAR
STARTCHAR 043F
ENCODING 1087
SWIDTH 600 0
DWIDTH 10 0
BBX 8 9 1 0
BITMAP
FF
FF
C3
C3
C3
C3
C3
C3
C3
ENDCHAR
STARTCHAR 0440
ENCODING 1088
SWIDTH 600 0
DWIDTH 10 0
BBX 8 13 1 -4
BITMAP
6E
7F
73
61
61
61
73
7F
6E
60
60
60
60
ENDCHAR
STARTCHAR 0441
ENCODING 1089
SWIDTH 540 0
DWIDTH 9 0
BBX 7 9 1 0
BITMAP
3C
7E
C6
C0
C0
C0
C6
7E
3C
ENDCHAR
STARTCHAR 0442
ENCODING 1090
SWIDTH 480 0
DWIDTH 8 0
BBX 6 9 1 0
BITMAP
FC
FC
30
30
30
30
30
30
30
ENDCHAR
STARTCHAR 0443
ENCODING 1091
SWIDTH 540 0
DWIDTH 9 0
BBX 8 13 1 -4
BITMAP
C1
E3
63
63
37
36
36
1C
1C
1C
18
78
70
ENDCHAR
STARTCHAR 0444
ENCODING 1092
SWIDTH 960 0
DWIDTH 16 0
BBX 14 16 1 -4
BITMAP
0300
0300
0300
3B78
7FF8
E79C
C30C
C30C
C30C
E79C
7FF8
7B70
0300
0300
0300
0300
ENDCHAR
STARTCHAR 0445
ENCODING 1093
SWIDTH 540 0
DWIDTH 9 0
BBX 8 9 1 0
BITMAP
E3
63
36
1C
1C
3E
36
63
E3
ENDCHAR
STARTCHAR 0446
ENCODING 1094
SWIDTH 600 0
DWIDTH 10 0
BBX 9 12 1 -3
BITMAP
C300
C300
C300
C300
C300
C300
C300
FF80
FF80
0180
0180
0180
ENDCHAR
STARTCHAR 0447
ENCODING 1095
SWIDTH 600 0
DWIDTH 10 0
BBX 8 9 1 0
BITMAP
C3
C3
C3
C3
FF
7B
03
03
03
ENDCHAR
STARTCHAR 0448
ENCODING 1096
SWIDTH 840 0
DWIDTH 14 0
BBX 12 9 1 0
BITMAP
C630
C630
C630
C630
C630
C630
C630
FFF0
FFF0
ENDCHAR
STARTCHAR 0449
ENCODING 1097
SWIDTH 840 0
DWIDTH 14 0
BBX 13 12 1 -3
BITMAP
C630
C630
C630
C630
C630
C630
C630
FFF8
FFF8
0018
0018
0018
ENDCHAR
STARTCHAR 044A
ENCODING 1098
SWIDTH 720 0
DWIDTH 12 0
BBX 11 9 0 0
BITMAP
F800
F800
1800
1FC0
1FE0
1860
1860
1FE0
1FC0
ENDCHAR
STARTCHAR 044B
ENCODING 1099
SWIDTH 840 0
DWIDTH 14 0
BBX 12 9 1 0
BITMAP
C030
C030
C030
FE30
FF30
C330
C330
FF30
FE30
ENDCHAR
STARTCHAR 044C
ENCODING 1100
SWIDTH 600 0
DWIDTH 10 0
BBX 8 9 1 0
BITMAP
C0
C0
C0
FE
FF
C3
C3
FF
FE
ENDCHAR
STARTCHAR 044D
ENCODING 1101
SWIDTH 540 0
DWIDTH 9 0
BBX 8 9 0 0
BITMAP
3C
FE
C3
1F
1F
03
C7
7E
3C
ENDCHAR
STARTCHAR 044E
ENCODING 1102
SWIDTH 900 0
DWIDTH 15 0
BBX 13 9 1 0
BITMAP
C1E0
C3F0
C738
FE18
FE18
C618
C738
C3F0
C1E0
ENDCHAR
STARTCHAR 044F
ENCODING 1103
SWIDTH 600 0
DWIDTH 10 0
BBX 8 9 1 0
BITMAP
3F
7F
61
7F
1F
39
31
61
E1
ENDCHAR
STARTCHAR 0451
ENCODING 1105
SWIDTH 540 0
DWIDTH 9 0
BBX 7 12 1 0
BITMAP
76
66
00
38
7C
C6
FE
FE
C0
C6
7C
38
ENDCHAR
STARTCHAR 0452
ENCODING 1106
SWIDTH 600 0
DWIDTH 10 0
BBX 9 16 0 -4
BITMAP
6000
FC00
FC00
6000
6F00
7F80
7180
6180
6180
6180
6180
6180
0180
0180
0780
0700
ENDCHAR
STARTCHAR 0453
ENCODING 1107
SWIDTH 420 0
DWIDTH 7 0
BBX 6 13 1 0
BITMAP
0C
18
30
00
FC
FC
C0
C0
C0
C0
C0
C0
C0
ENDCHAR
STARTCHAR 0454
ENCODING 1108
SWIDTH 540 0
DWIDTH 9 0
BBX 8 9 1 0
BITMAP
3C
7F
C3
F8
F8
C0
E3
7E
3C
ENDCHAR
STARTCHAR 0455
ENCODING 1109
SWIDTH 540 0
DWIDTH 9 0
BBX 7 9 1 0
BITMAP
7C
FE
C6
F0
7C
0E
C6
FE
7C
ENDCHAR
STARTCHAR 0456
ENCODING 1110
SWIDTH 240 0
DWIDTH 4 0
BBX 2 12 1 0
BITMAP
C0
C0
00
C0
C0
C0
C0
C0
C0
C0
C0
C0
ENDCHAR
STARTCHAR 0457
ENCODING 1111
SWIDTH 240 0
DWIDTH 4 0
BBX 5 12 0 0
BITMAP
D8
D8
00
60
60
60
60
60
60
60
60
60
ENDCHAR
STARTCHAR 0458
ENCODING 1112
SWIDTH 240 0
DWIDTH 4 0
BBX 3 16 0 -4
BITMAP
60
60
00
60
60
60
60
60
60
60
60
60
60
60
E0
C0
ENDCHAR
STARTCHAR 0459
ENCODING 1113
SWIDTH 960 0
DWIDTH 16 0
BBX 15 9 0 0
BITMAP
1F80
1F80
1180
31FC
31FE
3186
3186
E1FE
E1FC
ENDCHAR
STARTCHAR 045A
ENCODING 1114
SWIDTH 900 0
DWIDTH 15 0
BBX 13 9 1 0
BITMAP
C600
C600
C600
FFF0
FFF8
C618
C618
C7F8
C7F0
ENDCHAR
STARTCHAR 045B
ENCODING 1115
SWIDTH 600 0
DWIDTH 10 0
BBX 9 12 0 0
BITMAP
6000
FC00
FC00
6000
6F00
7F80
7180
6180
6180
6180
6180
6180
ENDCHAR
STARTCHAR 045C
ENCODING 1116
SWIDTH 540 0
DWIDTH 9 0
BBX 8 13 1 0
BITMAP
06
0C
18
00
C3
C6
CC
DC
F8
DC
CE
C6
C7
ENDCHAR
STARTCHAR 045E
ENCODING 1118
SWIDTH 540 0
DWIDTH 9 0
BBX 8 17 1 -4
BITMAP
33
33
1E
00
C1
E3
63
63
37
36
36
1C
1C
1C
18
78
70
ENDCHAR
STARTCHAR 045F
ENCODING 1119
SWIDTH 600 0
DWIDTH 10 0
BBX 8 12 1 -3
BITMAP
C3
C3
C3
C3
C3
C3
C3
FF
FF
18
18
18
ENDCHAR
STARTCHAR 0490
ENCODING 1168
SWIDTH 480 0
DWIDTH 8 0
BBX 7 15 1 0
BITMAP
06
06
06
FE
FE
C0
C0
C0
C0
C0
C0
C0
C0
C0
C0
ENDCHAR
STARTCHAR 0491
ENCODING 1169
SWIDTH 480 0
DWIDTH 8 0
BBX 7 12 1 0
BITMAP
06
06
06
FE
FE
C0
C0
C0
C0
C0
C0
C0
ENDCHAR
STARTCHAR 1E80
ENCODING 7808
SWIDTH 1020 0
DWIDTH 17 0
BBX 16 15 1 0
BITMAP
0380
00C0
0000
C1C1
E1C3
E163
6363
6363
7367
3236
3636
3636
3E3E
1C1C
1C1C
ENDCHAR
STARTCHAR 1E81
ENCODING 7809
SWIDTH 780 0
DWIDTH 13 0
BBX 13 13 0 0
BITMAP
0600
0300
0180
0000
6388
6388
7288
36D8
36D8
36D8
3458
1C70
1C70
ENDCHAR
STARTCHAR 1E82
ENCODING 7810
SWIDTH 1020 0
DWIDTH 17 0
BBX 16 15 1 0
BITMAP
0070
00C0
0000
C1C1
E1C3
E163
6363
6363
7367
3236
3636
3636
3E3E
1C1C
1C1C
ENDCHAR
STARTCHAR 1E83
ENCODING 7811
SWIDTH 780 0
DWIDTH 13 0
BBX 13 13 0 0
BITMAP
0060
00C0
0180
0000
6388
6388
7288
36D8
36D8
36D8
3458
1C70
1C70
ENDCHAR
STARTCHAR 1E84
ENCODING 7812
SWIDTH 1020 0
DWIDTH 17 0
BBX 16 15 1 0
BITMAP
0330
0330
0000
C1C1
E1C3
E163
6363
6363
7367
3236
3636
3636
3E3E
1C1C
1C1C
ENDCHAR
STARTCHAR 1E85
ENCODING 7813
SWIDTH 780 0
DWIDTH 13 0
BBX 13 12 0 0
BITMAP
0760
0660
0000
6388
6388
7288
36D8
36D8
36D8
3458
1C70
1C70
ENDCHAR
STARTCHAR 1EF2
ENCODING 7922
SWIDTH 600 0
DWIDTH 10 0
BBX 8 15 1 0
BITMAP
1C
06
00
61
73
33
37
1E
1E
0C
0C
0C
0C
0C
0C
ENDCHAR
STARTCHAR 1EF3
ENCODING 7923
SWIDTH 540 0
DWIDTH 9 0
BBX 8 17 1 -4
BITMAP
30
18
0C
00
C1
E3
63
63
37
36
36
1C
1C
1C
18
78
70
ENDCHAR
STARTCHAR 2013
ENCODING 8211
SWIDTH 540 0
DWIDTH 9 0
BBX 8 2 1 3
BITMAP
FF
FF
ENDCHAR
STARTCHAR 2014
ENCODING 8212
SWIDTH 1020 0
DWIDTH 17 0
BBX 17 2 0 3
BITMAP
FFFF80
FFFF80
ENDCHAR
STARTCHAR 2015
ENCODING 8213
SWIDTH 1020 0
DWIDTH 17 0
BBX 17 2 0 3
BITMAP
FFFF80
FFFF80
ENDCHAR
STARTCHAR 2017
ENCODING 8215
SWIDTH 540 0
DWIDTH 9 0
BBX 10 3 0 -4
BITMAP
FFC0
0000
FFC0
ENDCHAR
STARTCHAR 2018
ENCODING 8216
SWIDTH 300 0
DWIDTH 5 0
BBX 2 5 2 7
BITMAP
C0
80
80
C0
C0
ENDCHAR
STARTCHAR 2019
ENCODING 8217
SWIDTH 300 0
DWIDTH 5 0
BBX 2 5 1 7
BITMAP
C0
C0
40
40
C0
ENDCHAR
STARTCHAR 201A
ENCODING 8218
SWIDTH 300 0
DWIDTH 5 0
BBX 2 5 2 -3
BITMAP
C0
C0
40
40
C0
ENDCHAR
STARTCHAR 201B
ENCODING 8219
SWIDTH 300 0
DWIDTH 5 0
BBX 2 5 1 7
BITMAP
C0
C0
80
80
C0
ENDCHAR
STARTCHAR 201C
ENCODING 8220
SWIDTH 540 0
DWIDTH 9 0
BBX 6 5 1 7
BITMAP
CC
88
88
CC
CC
ENDCHAR
STARTCHAR 201D
ENCODING 8221
SWIDTH 540 0
DWIDTH 9 0
BBX 6 5 1 7
BITMAP
CC
CC
44
44
CC
ENDCHAR
STARTCHAR 201E
ENCODING 8222
SWIDTH 540 0
DWIDTH 9 0
BBX 6 5 2 -3
BITMAP
CC
CC
44
44
CC
ENDCHAR
STARTCHAR 2020
ENCODING 8224
SWIDTH 540 0
DWIDTH 9 0
BBX 8 13 1 -1
BITMAP
18
18
18
FF
FF
18
18
18
18
18
18
18
18
ENDCHAR
STARTCHAR 2021
ENCODING 8225
SWIDTH 540 0
DWIDTH 9 0
BBX 8 13 1 -1
BITMAP
18
18
18
FF
FF
18
18
18
FF
FF
18
18
18
ENDCHAR
STARTCHAR 2022
ENCODING 8226
SWIDTH 360 0
DWIDTH 6 0
BBX 5 5 0 3
BITMAP
70
F8
F8
F8
70
ENDCHAR
STARTCHAR 2026
ENCODING 8230
SWIDTH 1020 0
DWIDTH 17 0
BBX 12 2 2 0
BITMAP
C630
C630
ENDCHAR
STARTCHAR 2030
ENCODING 8240
SWIDTH 1080 0
DWIDTH 18 0
BBX 18 12 0 0
BITMAP
706000
D84000
D88000
D98000
DB0000
720000
04E380
0DB6C0
19B6C0
11B6C0
21B6C0
60E380
ENDCHAR
STARTCHAR 2032
ENCODING 8242
SWIDTH 240 0
DWIDTH 4 0
BBX 2 4 1 8
BITMAP
40
40
40
40
ENDCHAR
STARTCHAR 2033
ENCODING 8243
SWIDTH 480 0
DWIDTH 8 0
BBX 6 4 1 8
BITMAP
64
64
64
44
ENDCHAR
STARTCHAR 2039
ENCODING 8249
SWIDTH 360 0
DWIDTH 6 0
BBX 4 7 1 1
BITMAP
30
60
E0
C0
E0
60
30
ENDCHAR
STARTCHAR 203A
ENCODING 8250
SWIDTH 360 0
DWIDTH 6 0
BBX 4 7 1 1
BITMAP
C0
60
70
30
70
60
C0
ENDCHAR
STARTCHAR 203C
ENCODING 8252
SWIDTH 600 0
DWIDTH 10 0
BBX 7 12 2 0
BITMAP
C6
C6
C6
C6
C6
C6
C6
C6
C6
00
C6
C6
ENDCHAR
STARTCHAR 203E
ENCODING 8254
SWIDTH 360 0
DWIDTH 6 0
BBX 8 2 -1 11
BITMAP
FF
FF
ENDCHAR
STARTCHAR 2044
ENCODING 8260
SWIDTH 180 0
DWIDTH 3 0
BBX 8 12 -2 0
BITMAP
01
01
03
06
04
0C
18
10
30
60
40
C0
ENDCHAR
STARTCHAR 207F
ENCODING 8319
SWIDTH 420 0
DWIDTH 7 0
BBX 5 6 1 4
BITMAP
78
68
68
68
68
68
ENDCHAR
STARTCHAR 20A3
ENCODING 8355
SWIDTH 540 0
DWIDTH 9 0
BBX 8 12 0 0
BITMAP
7F
7F
60
60
60
7F
7F
60
60
F8
F8
60
ENDCHAR
STARTCHAR 20A4
ENCODING 8356
SWIDTH 540 0
DWIDTH 9 0
BBX 7 12 1 0
BITMAP
38
7C
6C
60
F8
60
F8
60
60
C6
FE
FC
ENDCHAR
STARTCHAR 20A7
ENCODING 8359
SWIDTH 1080 0
DWIDTH 18 0
BBX 16 12 1 0
BITMAP
F800
FC00
CE00
C680
C780
CFDE
FFF3
F9BC
C1BF
C187
C1B3
C1DE
ENDCHAR
STARTCHAR 20AC
ENCODING 8364
SWIDTH 540 0
DWIDTH 9 0
BBX 8 12 0 0
BITMAP
1E
3F
73
60
F8
60
F8
60
60
33
3F
1E
ENDCHAR
STARTCHAR 2105
ENCODING 8453
SWIDTH 900 0
DWIDTH 15 0
BBX 13 12 1 0
BITMAP
7860
CC40
C0C0
C180
C100
CFF0
7F98
0598
0D98
1998
1198
30F0
ENDCHAR
STARTCHAR 2113
ENCODING 8467
SWIDTH 480 0
DWIDTH 8 0
BBX 7 12 0 0
BITMAP
1E
3E
32
32
36
3E
78
70
32
32
3E
1C
ENDCHAR
STARTCHAR 2116
ENCODING 8470
SWIDTH 1140 0
DWIDTH 19 0
BBX 17 12 1 0
BITMAP
C0C000
E0C000
F0C000
F0C000
D8CF00
CCD980
CCD980
C6D980
C3D980
C3CF00
C1C000
C0DF80
ENDCHAR
STARTCHAR 2122
ENCODING 8482
SWIDTH 1020 0
DWIDTH 17 0
BBX 14 6 1 6
BITMAP
FD8C
318C
315C
3154
3174
3124
ENDCHAR
STARTCHAR 2126
ENCODING 8486
SWIDTH 780 0
DWIDTH 13 0
BBX 11 12 1 0
BITMAP
1F00
7FC0
60C0
C060
C060
C060
C060
60C0
71C0
3B80
FBE0
FBE0
ENDCHAR
STARTCHAR 212E
ENCODING 8494
SWIDTH 600 0
DWIDTH 10 0
BBX 8 9 1 0
BITMAP
3C
42
C3
C3
FF
C0
C0
41
3E
ENDCHAR
STARTCHAR 215B
ENCODING 8539
SWIDTH 840 0
DWIDTH 14 0
BBX 13 12 0 0
BITMAP
7060
B040
30C0
3180
3100
FF00
06F8
04D8
0C70
18D8
10D8
3070
ENDCHAR
STARTCHAR 215C
ENCODING 8540
SWIDTH 840 0
DWIDTH 14 0
BBX 13 12 0 0
BITMAP
F860
1840
30C0
1980
D900
7300
06F8
04D8
0C70
18D8
10D8
3070
ENDCHAR
STARTCHAR 215D
ENCODING 8541
SWIDTH 840 0
DWIDTH 14 0
BBX 13 12 0 0
BITMAP
F860
C040
F0C0
1980
D900
7300
06F8
04D8
0C70
18D8
10D8
3070
ENDCHAR
STARTCHAR 215E
ENCODING 8542
SWIDTH 840 0
DWIDTH 14 0
BBX 12 12 1 0
BITMAP
F8C0
1880
3180
2300
6200
6600
0DF0
09B0
18E0
31B0
21B0
60E0
ENDCHAR
STARTCHAR 2190
ENCODING 8592
SWIDTH 1020 0
DWIDTH 17 0
BBX 10 5 3 0
BITMAP
2000
4000
FFC0
4000
2000
ENDCHAR
STARTCHAR 2191
ENCODING 8593
SWIDTH 540 0
DWIDTH 9 0
BBX 5 10 2 0
BITMAP
20
70
A8
20
20
20
20
20
20
20
ENDCHAR
STARTCHAR 2192
ENCODING 8594
SWIDTH 1020 0
DWIDTH 17 0
BBX 10 5 3 0
BITMAP
0100
0080
FFC0
0080
0100
ENDCHAR
STARTCHAR 2193
ENCODING 8595
SWIDTH 540 0
DWIDTH 9 0
BBX 5 10 2 0
BITMAP
20
20
20
20
20
20
20
A8
70
20
ENDCHAR
STARTCHAR 2194
ENCODING 8596
SWIDTH 1020 0
DWIDTH 17 0
BBX 10 5 3 0
BITMAP
2100
4080
FFC0
4080
2100
ENDCHAR
STARTCHAR 2195
ENCODING 8597
SWIDTH 540 0
DWIDTH 9 0
BBX 5 10 2 0
BITMAP
20
70
A8
20
20
20
20
A8
70
20
ENDCHAR
STARTCHAR 21A8
ENCODING 8616
SWIDTH 540 0
DWIDTH 9 0
BBX 5 12 2 -2
BITMAP
20
70
A8
20
20
20
20
A8
70
20
00
F8
ENDCHAR
STARTCHAR 2202
ENCODING 8706
SWIDTH 480 0
DWIDTH 8 0
BBX 8 12 0 0
BITMAP
3C
3E
07
03
3B
7F
E7
C3
C6
CE
FC
78
ENDCHAR
STARTCHAR 2206
ENCODING 8710
SWIDTH 600 0
DWIDTH 10 0
BBX 10 12 0 0
BITMAP
1E00
1E00
1E00
3300
3300
3300
7380
6180
6180
E1C0
FFC0
FFC0
ENDCHAR
STARTCHAR 220F
ENCODING 8719
SWIDTH 840 0
DWIDTH 14 0
BBX 10 16 2 -4
BITMAP
FFC0
FFC0
C0C0
C0C0
C0C0
C0C0
C0C0
C0C0
C0C0
C0C0
C0C0
C0C0
C0C0
C0C0
C0C0
C0C0
ENDCHAR
STARTCHAR 2211
ENCODING 8721
SWIDTH 720 0
DWIDTH 12 0
BBX 10 16 1 -4
BITMAP
FFC0
FFC0
6000
3000
1800
0C00
0600
0300
0600
0C00
1800
3000
2000
4000
FFC0
FFC0
ENDCHAR
STARTCHAR 2212
ENCODING 8722
SWIDTH 600 0
DWIDTH 10 0
BBX 8 2 1 5
BITMAP
FF
FF
ENDCHAR
STARTCHAR 2215
ENCODING 8725
SWIDTH 180 0
DWIDTH 3 0
BBX 8 12 -2 0
BITMAP
01
01
03
06
04
0C
18
10
30
60
40
C0
ENDCHAR
STARTCHAR 2219
ENCODING 8729
SWIDTH 300 0
DWIDTH 5 0
BBX 2 2 1 4
BITMAP
C0
C0
ENDCHAR
STARTCHAR 221A
ENCODING 8730
SWIDTH 600 0
DWIDTH 10 0
BBX 9 13 0 -1
BITMAP
0080
0080
0100
0100
0100
0200
C200
E200
2400
1400
1400
0800
0800
ENDCHAR
STARTCHAR 221E
ENCODING 8734
SWIDTH 720 0
DWIDTH 12 0
BBX 10 6 1 1
BITMAP
7380
FFC0
CCC0
CCC0
FFC0
7380
ENDCHAR
STARTCHAR 221F
ENCODING 8735
SWIDTH 1020 0
DWIDTH 17 0
BBX 10 10 3 0
BITMAP
8000
8000
8000
8000
8000
8000
8000
8000
8000
FFC0
ENDCHAR
STARTCHAR 2229
ENCODING 8745
SWIDTH 720 0
DWIDTH 12 0
BBX 8 9 2 0
BITMAP
3C
42
81
81
81
81
81
81
81
ENDCHAR
STARTCHAR 222B
ENCODING 8747
SWIDTH 300 0
DWIDTH 5 0
BBX 6 16 -1 -4
BITMAP
1C
3C
30
30
30
30
30
30
30
30
30
30
30
30
F0
E0
ENDCHAR
STARTCHAR 2248
ENCODING 8776
SWIDTH 540 0
DWIDTH 9 0
BBX 8 8 0 2
BITMAP
60
F9
1F
06
60
F9
9F
06
ENDCHAR
STARTCHAR 2260
ENCODING 8800
SWIDTH 540 0
DWIDTH 9 0
BBX 7 10 1 1
BITMAP
0C
0C
FE
FE
18
30
FE
FE
60
60
ENDCHAR
STARTCHAR 2261
ENCODING 8801
SWIDTH 600 0
DWIDTH 10 0
BBX 8 7 1 2
BITMAP
FF
00
00
FF
00
00
FF
ENDCHAR
STARTCHAR 2264
ENCODING 8804
SWIDTH 540 0
DWIDTH 9 0
BBX 7 11 1 0
BITMAP
02
0E
7C
F0
C0
F0
3C
0E
02
FE
FE
ENDCHAR
STARTCHAR 2265
ENCODING 8805
SWIDTH 540 0
DWIDTH 9 0
BBX 7 11 1 0
BITMAP
80
E0
7C
1E
06
1E
78
E0
80
FE
FE
ENDCHAR
STARTCHAR 2302
ENCODING 8962
SWIDTH 600 0
DWIDTH 10 0
BBX 8 9 1 0
BITMAP
18
24
42
81
81
81
81
81
FF
ENDCHAR
STARTCHAR 2310
ENCODING 8976
SWIDTH 600 0
DWIDTH 10 0
BBX 8 5 1 2
BITMAP
FF
FF
C0
C0
C0
ENDCHAR
STARTCHAR 2320
ENCODING 8992
SWIDTH 600 0
DWIDTH 10 0
BBX 4 19 5 -5
BITMAP
70
B0
80
80
80
80
80
80
80
80
80
80
80
80
80
80
80
80
80
ENDCHAR
STARTCHAR 2321
ENCODING 8993
SWIDTH 600 0
DWIDTH 10 0
BBX 4 19 2 -5
BITMAP
10
10
10
10
10
10
10
10
10
10
10
10
10
10
10
10
10
D0
E0
ENDCHAR
STARTCHAR 2500
ENCODING 9472
SWIDTH 720 0
DWIDTH 12 0
BBX 12 1 0 5
BITMAP
7FF0
ENDCHAR
STARTCHAR 2502
ENCODING 9474
SWIDTH 660 0
DWIDTH 11 0
BBX 1 20 5 -5
BITMAP
80
80
80
80
80
80
80
80
80
80
80
80
80
80
80
80
80
80
80
80
ENDCHAR
STARTCHAR 250C
ENCODING 9484
SWIDTH 720 0
DWIDTH 12 0
BBX 7 11 5 -5
BITMAP
FE
80
80
80
80
80
80
80
80
80
80
ENDCHAR
STARTCHAR 2510
ENCODING 9488
SWIDTH 720 0
DWIDTH 12 0
BBX 5 1 1 5
BITMAP
F8
ENDCHAR
STARTCHAR 2514
ENCODING 9492
SWIDTH 720 0
DWIDTH 12 0
BBX 7 10 5 5
BITMAP
80
80
80
80
80
80
80
80
80
FE
ENDCHAR
STARTCHAR 2518
ENCODING 9496
SWIDTH 720 0
DWIDTH 12 0
BBX 5 1 1 5
BITMAP
F8
ENDCHAR
STARTCHAR 251C
ENCODING 9500
SWIDTH 720 0
DWIDTH 12 0
BBX 7 20 5 -5
BITMAP
80
80
80
80
80
80
80
80
80
FE
80
80
80
80
80
80
80
80
80
80
ENDCHAR
STARTCHAR 2524
ENCODING 9508
SWIDTH 720 0
DWIDTH 12 0
BBX 5 1 1 5
BITMAP
F8
ENDCHAR
STARTCHAR 252C
ENCODING 9516
SWIDTH 720 0
DWIDTH 12 0
BBX 12 11 0 -5
BITMAP
7FF0
0200
0200
0200
0200
0200
0200
0200
0200
0200
0200
ENDCHAR
STARTCHAR 2534
ENCODING 9524
SWIDTH 720 0
DWIDTH 12 0
BBX 12 10 0 5
BITMAP
0200
0200
0200
0200
0200
0200
0200
0200
0200
7FF0
ENDCHAR
STARTCHAR 253C
ENCODING 9532
SWIDTH 720 0
DWIDTH 12 0
BBX 12 20 0 -5
BITMAP
0200
0200
0200
0200
0200
0200
0200
0200
0200
7FF0
0200
0200
0200
0200
0200
0200
0200
0200
0200
0200
ENDCHAR
STARTCHAR 2550
ENCODING 9552
SWIDTH 720 0
DWIDTH 12 0
BBX 12 4 0 3
BITMAP
7FF0
0000
0000
7FF0
ENDCHAR
STARTCHAR 2551
ENCODING 9553
SWIDTH 720 0
DWIDTH 12 0
BBX 4 20 4 -5
BITMAP
90
90
90
90
90
90
90
90
90
90
90
90
90
90
90
90
90
90
90
90
ENDCHAR
STARTCHAR 2552
ENCODING 9554
SWIDTH 720 0
DWIDTH 12 0
BBX 7 12 5 -5
BITMAP
FE
80
80
FE
80
80
80
80
80
80
80
80
ENDCHAR
STARTCHAR 2553
ENCODING 9555
SWIDTH 720 0
DWIDTH 12 0
BBX 8 11 4 -5
BITMAP
FF
90
90
90
90
90
90
90
90
90
90
ENDCHAR
STARTCHAR 2554
ENCODING 9556
SWIDTH 720 0
DWIDTH 12 0
BBX 8 12 4 -5
BITMAP
FF
80
80
9F
90
90
90
90
90
90
90
90
ENDCHAR
STARTCHAR 2555
ENCODING 9557
SWIDTH 720 0
DWIDTH 12 0
BBX 5 4 1 3
BITMAP
F8
00
00
F8
ENDCHAR
STARTCHAR 2556
ENCODING 9558
SWIDTH 720 0
DWIDTH 12 0
BBX 8 11 0 -5
BITMAP
7F
04
04
04
04
04
04
04
04
04
04
ENDCHAR
STARTCHAR 2557
ENCODING 9559
SWIDTH 720 0
DWIDTH 12 0
BBX 8 12 0 -5
BITMAP
7F
00
00
7C
04
04
04
04
04
04
04
04
ENDCHAR
STARTCHAR 2558
ENCODING 9560
SWIDTH 720 0
DWIDTH 12 0
BBX 7 12 5 3
BITMAP
80
80
80
80
80
80
80
80
FE
80
80
FE
ENDCHAR
STARTCHAR 2559
ENCODING 9561
SWIDTH 720 0
DWIDTH 12 0
BBX 8 10 4 5
BITMAP
90
90
90
90
90
90
90
90
90
FF
ENDCHAR
STARTCHAR 255A
ENCODING 9562
SWIDTH 720 0
DWIDTH 12 0
BBX 8 12 4 3
BITMAP
90
90
90
90
90
90
90
90
9F
80
80
FF
ENDCHAR
STARTCHAR 255B
ENCODING 9563
SWIDTH 720 0
DWIDTH 12 0
BBX 5 4 1 3
BITMAP
F8
00
00
F8
ENDCHAR
STARTCHAR 255C
ENCODING 9564
SWIDTH 720 0
DWIDTH 12 0
BBX 8 10 0 5
BITMAP
04
04
04
04
04
04
04
04
04
7F
ENDCHAR
STARTCHAR 255D
ENCODING 9565
SWIDTH 720 0
DWIDTH 12 0
BBX 8 12 0 3
BITMAP
04
04
04
04
04
04
04
04
7C
00
00
7F
ENDCHAR
STARTCHAR 255E
ENCODING 9566
SWIDTH 720 0
DWIDTH 12 0
BBX 7 20 5 -5
BITMAP
80
80
80
80
80
80
80
80
FE
80
80
FE
80
80
80
80
80
80
80
80
ENDCHAR
STARTCHAR 255F
ENCODING 9567
SWIDTH 720 0
DWIDTH 12 0
BBX 8 20 4 -5
BITMAP
90
90
90
90
90
90
90
90
90
9F
90
90
90
90
90
90
90
90
90
90
ENDCHAR
STARTCHAR 2560
ENCODING 9568
SWIDTH 720 0
DWIDTH 12 0
BBX 8 20 4 -5
BITMAP
90
90
90
90
90
90
90
90
9F
80
80
9F
90
90
90
90
90
90
90
90
ENDCHAR
STARTCHAR 2561
ENCODING 9569
SWIDTH 720 0
DWIDTH 12 0
BBX 5 4 1 3
BITMAP
F8
00
00
F8
ENDCHAR
STARTCHAR 2562
ENCODING 9570
SWIDTH 720 0
DWIDTH 12 0
BBX 8 20 0 -5
BITMAP
04
04
04
04
04
04
04
04
04
7C
04
04
04
04
04
04
04
04
04
04
ENDCHAR
STARTCHAR 2563
ENCODING 9571
SWIDTH 720 0
DWIDTH 12 0
BBX 8 20 0 -5
BITMAP
04
04
04
04
04
04
04
04
7C
00
00
7C
04
04
04
04
04
04
04
04
ENDCHAR
STARTCHAR 2564
ENCODING 9572
SWIDTH 720 0
DWIDTH 12 0
BBX 12 12 0 -5
BITMAP
7FF0
0000
0000
7FF0
0200
0200
0200
0200
0200
0200
0200
0200
ENDCHAR
STARTCHAR 2565
ENCODING 9573
SWIDTH 720 0
DWIDTH 12 0
BBX 12 11 0 -5
BITMAP
7FF0
0480
0480
0480
0480
0480
0480
0480
0480
0480
0480
ENDCHAR
STARTCHAR 2566
ENCODING 9574
SWIDTH 720 0
DWIDTH 12 0
BBX 12 12 0 -5
BITMAP
7FF0
0000
0000
7CF0
0480
0480
0480
0480
0480
0480
0480
0480
ENDCHAR
STARTCHAR 2567
ENCODING 9575
SWIDTH 720 0
DWIDTH 12 0
BBX 12 12 0 3
BITMAP
0200
0200
0200
0200
0200
0200
0200
0200
7FF0
0000
0000
7FF0
ENDCHAR
STARTCHAR 2568
ENCODING 9576
SWIDTH 720 0
DWIDTH 12 0
BBX 12 10 0 5
BITMAP
0480
0480
0480
0480
0480
0480
0480
0480
0480
7FF0
ENDCHAR
STARTCHAR 2569
ENCODING 9577
SWIDTH 720 0
DWIDTH 12 0
BBX 12 12 0 3
BITMAP
0480
0480
0480
0480
0480
0480
0480
0480
7CF0
0000
0000
7FF0
ENDCHAR
STARTCHAR 256A
ENCODING 9578
SWIDTH 720 0
DWIDTH 12 0
BBX 12 20 0 -5
BITMAP
0200
0200
0200
0200
0200
0200
0200
0200
7FF0
0200
0200
7FF0
0200
0200
0200
0200
0200
0200
0200
0200
ENDCHAR
STARTCHAR 256B
ENCODING 9579
SWIDTH 720 0
DWIDTH 12 0
BBX 12 20 0 -5
BITMAP
0480
0480
0480
0480
0480
0480
0480
0480
0480
7FF0
0480
0480
0480
0480
0480
0480
0480
0480
0480
0480
ENDCHAR
STARTCHAR 256C
ENCODING 9580
SWIDTH 720 0
DWIDTH 12 0
BBX 12 20 0 -5
BITMAP
0480
0480
0480
0480
0480
0480
0480
0480
7CF0
0000
0000
7CF0
0480
0480
0480
0480
0480
0480
0480
0480
ENDCHAR
STARTCHAR 2580
ENCODING 9600
SWIDTH 720 0
DWIDTH 12 0
BBX 12 10 0 5
BITMAP
FFF0
FFF0
FFF0
FFF0
FFF0
FFF0
FFF0
FFF0
FFF0
FFF0
ENDCHAR
STARTCHAR 2584
ENCODING 9604
SWIDTH 720 0
DWIDTH 12 0
BBX 12 10 0 -5
BITMAP
FFF0
FFF0
FFF0
FFF0
FFF0
FFF0
FFF0
FFF0
FFF0
FFF0
ENDCHAR
STARTCHAR 2588
ENCODING 9608
SWIDTH 720 0
DWIDTH 12 0
BBX 12 20 0 -5
BITMAP
FFF0
FFF0
FFF0
FFF0
FFF0
FFF0
FFF0
FFF0
FFF0
FFF0
FFF0
FFF0
FFF0
FFF0
FFF0
FFF0
FFF0
FFF0
FFF0
FFF0
ENDCHAR
STARTCHAR 258C
ENCODING 9612
SWIDTH 720 0
DWIDTH 12 0
BBX 6 20 0 -5
BITMAP
FC
FC
FC
FC
FC
FC
FC
FC
FC
FC
FC
FC
FC
FC
FC
FC
FC
FC
FC
FC
ENDCHAR
STARTCHAR 2590
ENCODING 9616
SWIDTH 720 0
DWIDTH 12 0
BBX 6 20 6 -5
BITMAP
FC
FC
FC
FC
FC
FC
FC
FC
FC
FC
FC
FC
FC
FC
FC
FC
FC
FC
FC
FC
ENDCHAR
STARTCHAR 2591
ENCODING 9617
SWIDTH 720 0
DWIDTH 12 0
BBX 11 19 1 -5
BITMAP
9120
0000
2480
9120
0000
2480
0000
9120
2480
0000
9120
2480
0000
9120
0000
2480
9120
0000
2480
ENDCHAR
STARTCHAR 2592
ENCODING 9618
SWIDTH 720 0
DWIDTH 12 0
BBX 12 17 0 -5
BITMAP
4AD0
B520
0000
4AD0
0000
B520
4AD0
0000
B520
0000
0000
B520
0000
4AD0
B520
0000
4AD0
ENDCHAR
STARTCHAR 2593
ENCODING 9619
SWIDTH 720 0
DWIDTH 12 0
BBX 12 19 0 -6
BITMAP
5AB0
B550
FFF0
5AB0
FFF0
B550
5AB0
FFF0
B550
FFF0
FFF0
B550
FFF0
5AB0
B550
FFF0
5AB0
FFF0
FFF0
ENDCHAR
STARTCHAR 25A0
ENCODING 9632
SWIDTH 600 0
DWIDTH 10 0
BBX 8 8 1 0
BITMAP
FF
FF
FF
FF
FF
FF
FF
FF
ENDCHAR
STARTCHAR 25A1
ENCODING 9633
SWIDTH 600 0
DWIDTH 10 0
BBX 10 10 0 0
BITMAP
FFC0
8040
8040
8040
8040
8040
8040
8040
8040
FFC0
ENDCHAR
STARTCHAR 25AA
ENCODING 9642
SWIDTH 360 0
DWIDTH 6 0
BBX 4 4 1 3
BITMAP
F0
F0
F0
F0
ENDCHAR
STARTCHAR 25AB
ENCODING 9643
SWIDTH 360 0
DWIDTH 6 0
BBX 4 4 1 3
BITMAP
F0
90
90
F0
ENDCHAR
STARTCHAR 25AC
ENCODING 9644
SWIDTH 1020 0
DWIDTH 17 0
BBX 17 5 0 0
BITMAP
FFFF80
FFFF80
FFFF80
FFFF80
FFFF80
ENDCHAR
STARTCHAR char9647
ENCODING 9647
SWIDTH 480 0
DWIDTH 8 0
BBX 8 15 1 -3
BITMAP
FF
FF
C3
C3
C3
C3
C3
C3
C3
C3
C3
C3
C3
FF
FF
ENDCHAR
STARTCHAR 25B2
ENCODING 9650
SWIDTH 1020 0
DWIDTH 17 0
BBX 8 10 5 0
BITMAP
08
08
1C
1C
3E
3E
7F
7F
FF
FF
ENDCHAR
STARTCHAR 25BA
ENCODING 9658
SWIDTH 1020 0
DWIDTH 17 0
BBX 10 10 3 -1
BITMAP
8000
E000
F800
FE00
FF80
FFC0
FF00
FC00
F000
C000
ENDCHAR
STARTCHAR 25BC
ENCODING 9660
SWIDTH 1020 0
DWIDTH 17 0
BBX 8 10 5 -1
BITMAP
FF
FF
7F
7F
3E
3E
1C
1C
08
08
ENDCHAR
STARTCHAR 25C4
ENCODING 9668
SWIDTH 1020 0
DWIDTH 17 0
BBX 9 9 5 -1
BITMAP
0180
0780
1F80
7F80
FF80
3F80
0F80
0380
0080
ENDCHAR
STARTCHAR 25CA
ENCODING 9674
SWIDTH 480 0
DWIDTH 8 0
BBX 8 12 0 0
BITMAP
18
18
3C
66
66
C3
C3
66
66
3C
18
18
ENDCHAR
STARTCHAR 25CB
ENCODING 9675
SWIDTH 600 0
DWIDTH 10 0
BBX 7 8 1 1
BITMAP
38
44
82
82
82
82
44
38
ENDCHAR
STARTCHAR 25CF
ENCODING 9679
SWIDTH 600 0
DWIDTH 10 0
BBX 7 7 1 1
BITMAP
38
7C
FE
FE
FE
7C
38
ENDCHAR
STARTCHAR 25D8
ENCODING 9688
SWIDTH 600 0
DWIDTH 10 0
BBX 10 10 0 0
BITMAP
FFC0
E1C0
C0C0
8040
8040
8040
8040
C0C0
E1C0
FFC0
ENDCHAR
STARTCHAR 25D9
ENCODING 9689
SWIDTH 600 0
DWIDTH 10 0
BBX 10 10 0 0
BITMAP
FFC0
E1C0
DEC0
BF40
BF40
BF40
BF40
DEC0
E1C0
FFC0
ENDCHAR
STARTCHAR 25E6
ENCODING 9702
SWIDTH 360 0
DWIDTH 6 0
BBX 4 4 1 3
BITMAP
60
90
90
60
ENDCHAR
STARTCHAR 263A
ENCODING 9786
SWIDTH 1020 0
DWIDTH 17 0
BBX 10 10 4 0
BITMAP
1E00
6180
4080
A140
8040
8040
A140
5E80
6180
1E00
ENDCHAR
STARTCHAR 263B
ENCODING 9787
SWIDTH 1080 0
DWIDTH 18 0
BBX 10 10 4 0
BITMAP
1E00
7F80
7F80
DEC0
FFC0
FFC0
DEC0
6180
7F80
1E00
ENDCHAR
STARTCHAR 263C
ENCODING 9788
SWIDTH 960 0
DWIDTH 16 0
BBX 11 11 2 -2
BITMAP
0400
4440
2E80
1100
2080
E0E0
2080
1100
2E80
4440
0400
ENDCHAR
STARTCHAR 2640
ENCODING 9792
SWIDTH 780 0
DWIDTH 13 0
BBX 5 10 4 -1
BITMAP
38
40
40
40
38
10
10
78
10
10
ENDCHAR
STARTCHAR 2642
ENCODING 9794
SWIDTH 780 0
DWIDTH 13 0
BBX 7 7 3 2
BITMAP
06
06
78
88
88
88
70
ENDCHAR
STARTCHAR 2660
ENCODING 9824
SWIDTH 540 0
DWIDTH 9 0
BBX 9 10 0 0
BITMAP
0800
0800
1C00
3E00
7F00
FF80
FF80
7B00
0800
1E00
ENDCHAR
STARTCHAR 2663
ENCODING 9827
SWIDTH 660 0
DWIDTH 11 0
BBX 9 10 1 0
BITMAP
1C00
1C00
1C00
7F00
FF80
FF80
FF80
6B00
0800
3E00
ENDCHAR
STARTCHAR 2665
ENCODING 9829
SWIDTH 600 0
DWIDTH 10 0
BBX 9 9 0 0
BITMAP
7700
F780
FF80
7F00
7F00
3E00
1C00
0800
0800
ENDCHAR
STARTCHAR 2666
ENCODING 9830
SWIDTH 540 0
DWIDTH 9 0
BBX 7 11 1 -1
BITMAP
08
08
1C
3E
3E
7E
3E
3E
1C
08
08
ENDCHAR
STARTCHAR 266A
ENCODING 9834
SWIDTH 540 0
DWIDTH 9 0
BBX 5 9 2 0
BITMAP
20
30
30
28
28
28
20
E0
C0
ENDCHAR
STARTCHAR 266B
ENCODING 9835
SWIDTH 780 0
DWIDTH 13 0
BBX 8 10 2 0
BITMAP
03
3D
23
3D
21
21
21
21
E7
C6
ENDCHAR
STARTCHAR F001
ENCODING 61441
SWIDTH 600 0
DWIDTH 10 0
BBX 9 12 0 0
BITMAP
3980
7980
6000
F980
F980
6180
6180
6180
6180
6180
6180
6180
ENDCHAR
STARTCHAR F002
ENCODING 61442
SWIDTH 600 0
DWIDTH 10 0
BBX 9 12 0 0
BITMAP
3980
7980
6180
F980
F980
6180
6180
6180
6180
6180
6180
6180
ENDCHAR
STARTCHAR F005
ENCODING 61445
SWIDTH 360 0
DWIDTH 6 0
BBX 4 4 1 -4
BITMAP
E0
30
30
E0
ENDCHAR
STARTCHAR FB01
ENCODING 64257
SWIDTH 600 0
DWIDTH 10 0
BBX 9 12 0 0
BITMAP
3980
7980
6000
F980
F980
6180
6180
6180
6180
6180
6180
6180
ENDCHAR
STARTCHAR FB02
ENCODING 64258
SWIDTH 600 0
DWIDTH 10 0
BBX 9 12 0 0
BITMAP
3980
7980
6180
F980
F980
6180
6180
6180
6180
6180
6180
6180
ENDCHAR
ENDFONT
